<svg version="1.1" id="Layer_1" xmlns="http://www.w3.org/2000/svg" xmlns:xlink="http://www.w3.org/1999/xlink" x="0px" y="0px"
	 width="100%" viewBox="0 0 1024 1024" enable-background="new 0 0 1024 1024" xml:space="preserve">
<path fill="#00122A" opacity="1.000000" stroke="none" 
	d="
M676.000000,1025.000000 
	C450.666656,1025.000000 225.833328,1025.000000 1.000000,1025.000000 
	C1.000000,683.666687 1.000000,342.333344 1.000000,1.000000 
	C342.333344,1.000000 683.666687,1.000000 1025.000000,1.000000 
	C1025.000000,342.333344 1025.000000,683.666687 1025.000000,1025.000000 
	C908.833313,1025.000000 792.666687,1025.000000 676.000000,1025.000000 
M555.125000,260.353149 
	C554.780090,260.170685 554.435181,259.988190 554.187622,259.863159 
	C554.187622,259.863159 554.252258,259.770416 554.226562,259.076385 
	C548.402405,254.184113 542.578247,249.291824 536.167114,244.067841 
	C534.798645,243.337952 533.430176,242.608063 531.773438,241.232788 
	C525.713989,239.825653 519.708435,237.556381 513.584961,237.173706 
	C495.510071,236.044205 482.529358,246.067627 471.689972,258.855804 
	C466.783600,264.644257 463.782593,272.054840 459.962524,278.755432 
	C451.597992,293.427185 443.143097,308.049347 434.958923,322.821320 
	C429.902496,331.947937 425.477814,341.425232 420.398590,350.538422 
	C415.527374,359.278473 410.015564,367.660156 405.087402,376.370239 
	C400.891296,383.786377 397.124908,391.445648 392.884186,399.664703 
	C384.951569,413.328644 376.926880,426.940430 369.141235,440.687592 
	C366.739044,444.929199 364.988434,449.539764 362.305756,454.243469 
	C361.860199,455.462830 361.414673,456.682190 360.331757,458.095032 
	C359.526306,459.373291 358.720856,460.651581 357.939178,461.987793 
	C357.939178,461.987793 357.960327,461.928894 357.434540,462.264801 
	C357.262878,462.848022 357.091217,463.431274 356.962830,463.918488 
	C356.962830,463.918488 356.866760,463.875336 356.324158,464.274170 
	C355.186249,466.503448 354.048309,468.732727 352.979401,470.988770 
	C352.979401,470.988770 352.933990,470.930328 352.396881,471.335938 
	C351.241821,473.534637 350.086761,475.733307 348.978241,477.956451 
	C348.978241,477.956451 348.927887,477.954865 348.374237,478.303711 
	C347.576050,479.844208 346.777832,481.384735 345.917236,482.940369 
	C345.917236,482.940369 345.937866,483.001160 345.445007,483.336548 
	C345.272400,483.895264 345.099762,484.453949 344.968048,484.957031 
	C344.968048,484.957031 344.909973,484.919647 344.357544,485.293488 
	C343.393433,487.064575 342.429321,488.835663 341.593018,490.976318 
	C341.593018,490.976318 341.963104,490.849945 341.313477,490.826813 
	C341.188477,491.222595 341.063477,491.618347 340.986725,491.970337 
	C340.986725,491.970337 340.934204,491.931824 340.415375,492.235901 
	C340.051819,492.952850 339.688232,493.669830 339.161957,494.471313 
	C339.161957,494.471313 339.237946,494.638184 338.847443,495.143158 
	C337.524719,497.717621 336.202026,500.292114 334.856812,502.920105 
	C334.856812,502.920105 334.913025,502.934509 334.324249,503.227386 
	C333.765259,504.409027 333.206268,505.590637 332.759674,506.985504 
	C332.759674,506.985504 332.973175,506.873627 332.353088,506.874939 
	C332.208374,507.250946 332.063660,507.626953 331.936279,507.913025 
	C331.936279,507.913025 331.846344,507.895874 331.247833,508.244507 
	C329.541351,511.817108 327.834839,515.389709 325.994385,519.695068 
	C322.379364,526.129517 318.764343,532.563904 314.868958,539.664673 
	C313.970917,541.152039 313.040833,542.621094 312.180115,544.129761 
	C307.100159,553.033752 302.036316,561.946960 296.469330,571.339478 
	C292.579742,578.473999 288.690155,585.608459 284.256927,593.168701 
	C276.909027,606.235352 269.543732,619.292297 262.245697,632.386780 
	C261.647644,633.459839 261.507965,634.788452 260.873596,636.665710 
	C260.022278,638.220581 259.198975,639.791565 258.314850,641.327576 
	C254.153778,648.556885 249.975983,655.776672 245.285034,663.415588 
	C240.984543,671.192566 236.684052,678.969543 232.379288,686.758545 
	C232.379288,686.758545 232.376083,686.775452 231.959763,687.251404 
	C230.269638,690.463501 228.579514,693.675598 226.890793,696.910522 
	C226.890793,696.910522 226.911163,696.920410 226.391006,697.317932 
	C225.846512,698.496948 225.302017,699.675903 224.815536,700.836304 
	C224.815536,700.836304 224.741318,700.840454 224.220444,701.167969 
	C223.790741,702.085815 223.361053,703.003723 222.927948,703.945740 
	C222.927948,703.945740 222.949432,703.956726 222.436523,704.290283 
	C222.233826,704.853943 222.031143,705.417664 221.891098,705.806702 
	C221.891098,705.806702 221.716400,705.744202 221.211411,706.137573 
	C221.113220,706.757812 221.015045,707.378052 220.916718,707.880981 
	C220.916718,707.880981 220.799408,707.880859 220.229401,708.245361 
	C219.087357,710.436829 217.945312,712.628357 216.285538,715.178955 
	C215.814728,716.072815 215.343918,716.966614 214.863098,717.903198 
	C214.863098,717.903198 214.899445,717.880737 214.345428,718.192261 
	C214.202988,718.798889 214.060532,719.405457 213.967545,719.854858 
	C213.967545,719.854858 213.810440,719.805054 213.295792,720.133911 
	C213.146378,720.715698 212.996979,721.297424 212.332169,722.318542 
	C211.204498,724.335083 210.069336,726.347473 208.950409,728.368896 
	C203.911758,737.471558 198.877655,746.576843 193.332870,756.164612 
	C189.982498,762.409729 186.409729,768.550842 183.410553,774.960327 
	C182.449020,777.015137 183.003647,779.779358 182.932098,782.846497 
	C183.621536,783.539490 184.310974,784.232483 185.335114,785.091370 
	C185.335114,785.091370 185.706787,785.129333 186.037338,785.637146 
	C186.605148,785.790771 187.172958,785.944458 188.062286,786.344849 
	C188.062286,786.344849 188.448364,786.468201 188.448364,786.468201 
	C188.448364,786.468201 188.848770,786.405273 189.672287,786.679688 
	C190.825043,786.672668 191.977814,786.665649 194.033401,786.802307 
	C201.619446,786.731812 209.205490,786.661316 217.746704,786.726685 
	C228.481186,786.440674 239.215668,786.154663 250.768845,785.942810 
	C262.308441,784.531860 272.054596,779.351562 279.848663,770.959106 
	C289.791351,760.253235 295.890839,747.072449 302.791229,733.707214 
	C304.008240,731.202209 305.225250,728.697266 306.843445,726.032471 
	C307.099152,725.864563 307.254669,725.630188 307.320160,725.275635 
	C307.320160,725.275635 307.267548,725.290466 307.785828,724.923340 
	C308.022186,724.336792 308.258514,723.750183 308.376404,723.233704 
	C308.376404,723.233704 308.450043,723.350037 308.897583,722.902588 
	C309.363647,721.969788 309.829742,721.036926 310.191559,720.126831 
	C310.191559,720.126831 310.216461,720.230591 310.715515,719.762573 
	C312.329346,716.659485 313.943176,713.556396 315.595154,710.380676 
	C315.595154,710.380676 315.524811,710.338501 315.961517,709.982422 
	C316.208954,709.481750 316.456390,708.981079 316.559814,707.994324 
	C316.397552,708.041504 316.235260,708.088623 316.744080,708.195496 
	C316.891510,707.797058 317.038971,707.398560 317.110199,707.111206 
	C317.110199,707.111206 317.220093,707.189087 317.748077,706.759033 
	C324.951050,693.565491 332.154022,680.372009 339.822083,666.737305 
	C340.348206,665.594971 340.874298,664.452637 341.397614,663.273926 
	C341.397614,663.273926 341.361237,663.270203 341.874298,662.975403 
	C342.141632,662.454529 342.408997,661.933655 342.506378,660.974304 
	C342.506378,660.974304 342.067139,661.142151 342.736389,661.188171 
	C342.875977,660.789795 343.015533,660.391479 343.078217,660.099670 
	C343.078217,660.099670 343.185089,660.176025 343.713104,659.750732 
	C344.983765,657.291931 346.254425,654.833191 347.527832,652.338074 
	C347.527832,652.338074 347.546051,652.306519 347.980988,651.886292 
	C348.389618,650.975952 348.798248,650.065613 349.122345,649.065063 
	C349.122345,649.065063 349.168396,649.179810 349.695984,648.748474 
	C352.763763,643.138794 355.831512,637.529114 359.137573,631.553284 
	C359.137573,631.553284 359.170074,631.117615 359.149261,631.046021 
	C359.149261,631.046021 359.122498,631.115601 359.691742,630.755798 
	C360.237701,629.524963 360.783661,628.294189 361.217926,627.143311 
	C361.217926,627.143311 361.299774,627.253662 361.798096,626.843628 
	C362.381592,625.689697 362.965118,624.535828 363.419525,623.019836 
	C363.419525,623.019836 363.056915,623.147522 363.698914,623.156067 
	C363.849152,622.772217 363.999390,622.388367 364.066772,622.063843 
	C364.066772,622.063843 364.126678,622.146301 364.631073,621.775940 
	C364.795990,621.183472 364.960876,620.590942 365.079987,620.098938 
	C365.079987,620.098938 365.180634,620.144348 365.719330,619.734436 
	C367.546173,616.238770 369.372986,612.743103 371.225952,609.183044 
	C371.225952,609.183044 371.161774,609.156311 371.719940,608.850464 
	C371.949799,608.262085 372.179688,607.673706 372.236816,607.157532 
	C372.236816,607.157532 372.311493,607.329163 372.792328,606.912842 
	C372.979675,606.309570 373.166992,605.706299 373.179565,604.986877 
	C373.179565,604.986877 373.063721,605.161865 373.689636,605.136719 
	C373.832214,604.758789 373.974792,604.380859 374.069794,604.057007 
	C374.069794,604.057007 374.129639,604.097046 374.622284,603.626404 
	C377.190369,598.976562 379.783478,594.340332 382.321869,589.674255 
	C389.526031,576.431702 396.707886,563.177002 404.196930,549.367310 
	C404.518219,548.611816 404.839478,547.856323 405.016479,547.048889 
	C405.016479,547.048889 405.163330,547.111145 405.776947,546.843872 
	C407.224609,544.248840 408.672272,541.653809 410.061737,539.023926 
	C410.061737,539.023926 410.068237,539.091492 410.575287,538.737854 
	C410.769775,538.159668 410.964233,537.581482 411.088928,537.082947 
	C411.088928,537.082947 411.169067,537.152100 411.696838,536.726196 
	C412.893829,534.548889 414.091980,532.372253 415.287720,530.194275 
	C428.865631,505.462372 442.443146,480.730316 456.393066,455.423737 
	C457.971497,452.727020 459.549927,450.030334 461.673523,446.899414 
	C464.150146,442.312439 466.626770,437.725494 469.133972,433.109070 
	C469.133972,433.109070 469.109680,433.074219 469.665558,432.688751 
	C472.906464,426.686829 476.147400,420.684937 479.613739,414.579895 
	C479.613739,414.579895 479.517670,414.351410 479.886139,414.147980 
	C480.058929,413.779449 480.231750,413.410950 480.881866,412.470032 
	C489.392609,397.360626 497.898712,382.248627 506.416260,367.143036 
	C510.039246,360.717804 512.560730,360.256439 518.276001,365.630310 
	C522.393982,372.490662 526.511902,379.350983 530.606262,386.272949 
	C530.606262,386.272949 530.666321,386.300323 530.723511,386.681915 
	C530.723511,386.681915 530.974487,386.975006 531.111389,387.667725 
	C534.804626,394.094604 538.497803,400.521484 542.427429,407.590271 
	C546.552612,414.811798 550.677795,422.033325 554.943665,429.931274 
	C556.168396,431.999725 557.393127,434.068176 558.844238,436.825867 
	C562.489563,443.295013 566.134827,449.764160 569.784851,456.161072 
	C569.784851,456.161072 569.712463,456.159058 569.842346,456.591949 
	C569.842346,456.591949 570.139099,456.932892 570.331665,457.598022 
	C572.518982,461.429840 574.706238,465.261627 576.993408,469.003357 
	C576.993408,469.003357 576.885193,469.083527 576.979065,469.743011 
	C577.608337,470.606598 578.237671,471.470154 578.955322,473.020447 
	C581.014526,476.668518 583.073730,480.316589 585.277344,484.640839 
	C590.480408,493.834412 595.683472,503.028015 601.005310,512.924133 
	C603.180786,517.342957 606.253906,521.514038 604.931641,526.941650 
	C604.931641,526.941650 604.922180,526.873352 604.425659,527.174683 
	C603.954651,527.786682 603.483582,528.398682 602.406006,529.055054 
	C601.608154,529.613708 600.810242,530.172302 599.073425,530.683044 
	C567.287048,530.667297 535.500366,530.587341 503.714752,530.731934 
	C500.419586,530.746948 497.130432,532.097046 493.911530,532.835327 
	C493.911530,532.835327 493.881409,532.768372 493.397583,532.843262 
	C493.397583,532.843262 493.007507,533.139160 492.372833,533.346680 
	C490.789520,535.237549 488.855103,536.933350 487.678467,539.050232 
	C478.280060,555.959534 469.025146,572.948608 459.212067,590.356873 
	C456.970215,594.533508 454.886993,598.805847 452.442047,602.859985 
	C449.982208,606.938843 450.392609,609.968811 455.521576,612.630981 
	C468.330566,612.782471 481.139587,613.063843 493.948547,613.062073 
	C539.252075,613.055847 584.555603,612.952759 630.801697,613.051147 
	C635.429688,613.070190 640.081299,613.394592 644.680420,613.039673 
	C652.426636,612.442078 658.125671,615.284424 662.218323,622.671875 
	C666.796204,630.853455 671.374084,639.035034 676.133728,647.629456 
	C676.290955,647.901733 676.515869,648.095520 676.845825,648.118591 
	C676.845825,648.118591 676.752808,648.083008 676.863098,648.741272 
	C677.558228,649.843933 678.253357,650.946655 678.997559,651.999695 
	C678.997559,651.999695 678.943542,652.046692 679.037659,652.672058 
	C679.616272,653.520447 680.194885,654.368835 680.810547,655.143494 
	C680.810547,655.143494 680.735779,655.108398 680.829163,655.772888 
	C681.517456,656.888672 682.205688,658.004517 682.882019,659.085144 
	C682.882019,659.085144 682.855042,659.121582 682.964539,659.778809 
	C683.861511,661.284668 684.758545,662.790527 685.701477,664.321655 
	C685.701477,664.321655 685.720276,664.370667 685.906494,665.049377 
	C694.862427,681.099609 703.818359,697.149780 712.921875,713.890564 
	C714.183350,716.011963 715.444763,718.133362 716.647705,720.221497 
	C716.647705,720.221497 716.627563,720.285706 716.779907,720.971313 
	C718.167114,723.332642 719.554321,725.693909 720.999023,728.018738 
	C720.999023,728.018738 720.932129,728.029175 720.971436,728.509033 
	C720.971436,728.509033 721.129333,728.963867 721.258728,729.645874 
	C726.494385,738.849976 731.467163,748.216309 737.026123,757.220825 
	C745.777954,771.397339 757.102356,783.557861 774.426758,785.085327 
	C794.877808,786.888489 815.547913,786.438049 836.123413,786.455261 
	C842.085510,786.460266 845.180725,780.963928 842.592896,775.794373 
	C838.366638,767.352051 833.602722,759.178772 828.913879,750.240845 
	C827.649963,748.438171 826.386047,746.635559 825.142029,744.858154 
	C825.142029,744.858154 825.163452,744.827026 825.057495,744.132629 
	C819.437500,733.816528 813.881775,723.464905 808.185364,713.191162 
	C791.741333,683.533508 775.278992,653.885864 758.743591,624.279114 
	C751.946594,612.109131 744.944519,600.053650 737.706421,587.318237 
	C732.260986,577.479492 726.815613,567.640747 721.179504,557.125671 
	C718.135376,551.715088 715.091248,546.304443 711.833801,540.236816 
	C708.255676,534.089355 704.677551,527.941833 700.838867,521.154053 
	C698.618896,517.255615 696.398926,513.357178 693.882263,509.151978 
	C693.630859,509.013672 693.364868,508.914642 693.038635,508.175537 
	C692.728821,507.355530 692.419006,506.535522 691.882568,505.066864 
	C689.652405,501.271942 687.422241,497.477051 684.922485,493.049500 
	C680.929993,486.040741 676.937500,479.031982 672.804810,471.332092 
	C669.932434,466.255981 667.060059,461.179840 663.989380,455.524628 
	C663.663818,455.325470 663.338196,455.126312 663.051880,455.015839 
	C663.051880,455.015839 663.140503,454.976440 663.142517,454.239655 
	C659.098022,447.166809 655.053467,440.093933 651.064697,432.284393 
	C647.386414,425.492035 643.708130,418.699677 639.827209,411.248077 
	C636.557678,405.495422 633.288147,399.742737 629.847168,393.311249 
	C626.289001,387.057159 622.730774,380.803101 618.845276,373.983185 
	C617.768433,372.294922 616.691589,370.606689 615.500000,368.244873 
	C611.084656,360.451752 606.669373,352.658630 602.121765,344.143066 
	C598.602478,337.754120 595.083191,331.365204 591.402161,324.319885 
	C590.958496,323.845581 590.514832,323.371246 590.012390,322.955444 
	C590.012390,322.955444 590.071167,323.013947 590.037048,322.382141 
	C589.756409,321.865448 589.475769,321.348724 589.268799,320.750336 
	C589.268799,320.750336 589.188965,320.674622 589.065735,320.002472 
	C586.385742,315.330902 583.705688,310.659363 580.889648,305.295166 
	C575.317017,295.751617 569.744324,286.208069 564.210999,276.037933 
	C563.788269,275.349365 563.365479,274.660797 562.903381,273.355469 
	C562.358093,272.527802 561.812744,271.700134 561.318604,270.790131 
	C561.318604,270.790131 561.238098,270.736053 561.139465,270.056335 
	C559.877502,267.972076 558.615601,265.887817 557.226929,263.803650 
	C557.226929,263.803650 557.227234,263.930328 557.198303,263.299530 
	C556.815369,262.841492 556.432434,262.383423 556.013245,261.978485 
	C556.013245,261.978485 556.074097,261.999298 555.986267,261.414124 
	C555.666138,261.243286 555.346069,261.072418 555.009705,260.980865 
	C555.009705,260.980865 555.089111,260.996765 555.125000,260.353149 
z"/>
<path fill="#6914A1" opacity="1.000000" stroke="none" 
	d="
M685.655579,664.296387 
	C684.758545,662.790527 683.861511,661.284668 683.220703,659.523926 
	C686.051392,657.765686 689.331482,656.819641 691.051941,654.641663 
	C694.520203,650.250854 696.765991,644.901062 700.189453,640.466797 
	C706.866577,631.818237 713.895752,623.432434 720.994019,615.121216 
	C725.803894,609.489319 731.017700,604.203796 735.954285,598.677063 
	C736.739319,597.798279 737.292664,596.505310 737.467163,595.331543 
	C737.829407,592.895447 737.865540,590.410767 738.035706,587.946106 
	C744.944519,600.053650 751.946594,612.109131 758.743591,624.279114 
	C775.278992,653.885864 791.741333,683.533508 808.185364,713.191162 
	C813.881775,723.464905 819.437500,733.816528 824.771973,744.422974 
	C822.627808,743.144897 820.769104,741.576599 818.433044,739.605530 
	C819.761353,746.697815 819.754272,746.798767 812.880127,746.317139 
	C807.162476,745.916626 801.461243,744.781494 795.757751,744.815491 
	C789.757446,744.851196 784.072083,744.976501 779.969055,739.611816 
	C779.619019,739.154053 778.693481,738.672607 778.246216,738.824219 
	C773.200684,740.535400 769.909912,736.803284 765.923889,735.111145 
	C763.557007,734.106384 760.918213,733.549805 758.348450,733.254456 
	C752.677063,732.602600 746.663208,733.132385 742.862000,727.456482 
	C742.335388,726.670105 741.408325,726.058105 740.540710,725.608337 
	C732.376099,721.375427 724.184143,717.195312 715.988281,712.622131 
	C715.339417,710.392456 714.702332,708.540649 714.065247,706.688843 
	C713.624268,706.854675 713.183289,707.020508 712.742371,707.186340 
	C712.846558,709.105896 712.950745,711.025452 712.984863,713.008911 
	C712.914856,713.072815 712.774292,713.200012 712.774292,713.200012 
	C703.818359,697.149780 694.862427,681.099609 686.025024,664.592224 
	C686.573120,663.988525 687.002686,663.841980 687.432190,663.695435 
	C687.146240,663.440186 686.860291,663.184875 686.574280,662.929626 
	C686.268066,663.385193 685.961792,663.840820 685.655579,664.296387 
z"/>
<path fill="#01D8D8" opacity="1.000000" stroke="none" 
	d="
M536.754089,244.399551 
	C542.578247,249.291824 548.402405,254.184113 553.943420,259.370667 
	C549.158081,259.704376 552.146362,263.508850 550.878967,265.362793 
	C546.256348,272.124634 542.334900,279.362701 537.787781,286.180176 
	C534.215637,291.535919 530.629761,297.058350 526.105713,301.557098 
	C520.890991,306.742645 515.407532,311.341064 511.213531,317.714172 
	C505.267639,326.749390 497.541931,334.592896 490.938293,343.222290 
	C485.750854,350.001007 481.211700,357.271606 476.203278,364.192474 
	C469.165955,373.916779 461.813629,383.415436 454.878784,393.210785 
	C450.207916,399.808350 446.229553,406.896118 441.560547,413.495087 
	C437.743378,418.890106 433.133911,423.723236 429.295807,429.105072 
	C425.368286,434.612335 422.541260,440.986481 418.189270,446.091858 
	C409.120636,456.730438 399.359253,466.778198 389.894958,477.080170 
	C388.577454,478.514221 387.331970,480.014343 386.049927,481.481079 
	C382.948578,485.029388 379.910156,488.635468 376.726776,492.108673 
	C372.506500,496.713043 366.136810,498.428894 362.911865,505.033478 
	C360.893768,509.166504 356.979187,514.597595 350.402191,515.328247 
	C347.143799,515.690247 343.793823,517.077026 344.301392,521.703735 
	C344.363312,522.268372 343.543182,523.234314 342.908264,523.523743 
	C336.801514,526.307495 330.619232,528.926270 324.526276,531.739075 
	C323.101196,532.396851 320.921234,533.520691 320.827240,534.583801 
	C320.486298,538.440857 317.548065,538.224365 315.149292,538.998291 
	C318.764343,532.563904 322.379364,526.129517 326.365540,519.200928 
	C332.455261,517.000916 330.859680,511.838165 331.846344,507.895874 
	C331.846344,507.895874 331.936279,507.913025 332.089905,507.757385 
	C332.486725,507.359039 332.729950,507.116333 332.973175,506.873627 
	C332.973175,506.873627 332.759674,506.985504 333.010132,506.721863 
	C333.811371,505.283661 334.362213,504.109070 334.913025,502.934509 
	C334.913025,502.934509 334.856812,502.920105 335.187256,502.779816 
	C336.757812,499.972412 337.997894,497.305298 339.237976,494.638184 
	C339.237946,494.638184 339.161957,494.471313 339.525818,494.287354 
	C340.237823,493.379547 340.586029,492.655701 340.934204,491.931824 
	C340.934204,491.931824 340.986725,491.970337 341.105042,491.772156 
	C341.469940,491.332611 341.716553,491.091309 341.963135,490.849976 
	C341.963104,490.849945 341.593018,490.976318 341.870422,490.682617 
	C343.068573,488.565826 343.989258,486.742737 344.909973,484.919647 
	C344.909973,484.919647 344.968048,484.957031 345.111603,484.753082 
	C345.482727,484.033142 345.710297,483.517151 345.937866,483.001160 
	C345.937866,483.001160 345.917236,482.940369 346.267822,482.816956 
	C347.388214,481.113953 348.158051,479.534393 348.927856,477.954865 
	C348.927887,477.954865 348.978241,477.956451 349.279480,477.829437 
	C350.698486,475.445068 351.816254,473.187714 352.934021,470.930328 
	C352.933990,470.930328 352.979401,470.988770 353.247375,470.805176 
	C354.632507,468.372833 355.749634,466.124084 356.866760,463.875336 
	C356.866760,463.875336 356.962830,463.918488 357.102417,463.723877 
	C357.481445,462.995819 357.720886,462.462341 357.960327,461.928894 
	C357.960327,461.928894 357.939178,461.987793 358.244934,461.854279 
	C359.356842,460.447693 360.162994,459.174622 360.969116,457.901550 
	C361.414673,456.682190 361.860199,455.462830 362.985535,454.065399 
	C365.909241,452.833405 368.060944,451.256653 370.417511,450.840881 
	C374.561218,450.109833 377.235535,448.119720 379.232727,444.439789 
	C379.992737,443.039490 382.244598,442.446472 383.820435,441.492035 
	C385.288727,440.602783 386.794434,439.770630 388.222778,438.821655 
	C389.288879,438.113373 390.240509,437.235382 391.273743,436.474518 
	C393.732483,434.663971 396.207367,432.875244 398.679382,431.082764 
	C404.550629,426.825592 407.349976,420.840637 408.755585,413.902832 
	C409.168579,411.864136 410.325958,409.761810 411.699036,408.168488 
	C418.287445,400.523193 425.107635,393.248718 430.585449,384.521423 
	C436.505096,375.090179 444.872498,367.209869 452.012390,358.521759 
	C454.382690,355.637543 456.106110,352.229401 458.391754,349.266327 
	C463.108612,343.151367 469.816284,337.851196 472.384094,330.975555 
	C475.862610,321.661407 484.815247,317.597443 489.086456,309.283783 
	C492.120941,303.377380 497.476166,298.671631 501.743835,293.388214 
	C506.399719,287.624054 510.207550,280.837646 515.832397,276.285065 
	C521.869141,271.399139 523.883728,264.455139 528.089417,258.723816 
	C529.623596,256.633179 531.913025,253.904266 531.561646,251.861572 
	C530.735596,247.059433 533.403442,245.736893 536.754089,244.399551 
z"/>
<path fill="#03C2D6" opacity="1.000000" stroke="none" 
	d="
M518.073425,364.971069 
	C512.560730,360.256439 510.039246,360.717804 506.416260,367.143036 
	C497.898712,382.248627 489.392609,397.360626 480.484467,412.879272 
	C479.897247,413.642792 479.707458,413.997101 479.517639,414.351379 
	C479.517670,414.351410 479.613739,414.579895 479.139954,414.539398 
	C477.598297,415.077332 475.925476,415.403015 475.561035,416.275360 
	C473.249542,421.807678 471.227295,427.460876 469.109680,433.074219 
	C469.109680,433.074219 469.133972,433.109070 468.792755,433.220032 
	C466.010468,437.998505 463.569397,442.666077 461.128357,447.333618 
	C459.549927,450.030334 457.971497,452.727020 455.912903,455.609406 
	C453.912231,456.015320 451.462402,455.740570 451.035004,456.543030 
	C449.341736,459.722198 448.342896,463.263885 446.957275,466.617737 
	C446.366119,468.048706 445.696503,469.581665 444.644562,470.660980 
	C442.156525,473.213898 439.158020,475.297211 436.834015,477.976440 
	C431.655945,483.946136 428.287994,491.192200 422.243713,496.713837 
	C415.763672,502.633545 410.441956,509.837769 404.733948,516.582275 
	C395.729370,527.221924 386.760803,537.893433 377.898895,548.651917 
	C371.709625,556.165833 364.433685,562.347595 356.660980,568.201721 
	C348.278442,574.515198 341.295197,582.533936 331.463776,587.126648 
	C324.765900,590.255615 318.402069,594.323242 312.410675,598.687500 
	C303.801727,604.958435 292.366455,606.923340 285.798218,616.253662 
	C285.457367,616.737793 284.577942,616.804749 284.073212,617.217529 
	C279.656860,620.829285 275.277863,624.486694 270.869171,628.107971 
	C267.645721,630.755737 264.394287,633.369446 261.155304,635.998291 
	C261.507965,634.788452 261.647644,633.459839 262.245697,632.386780 
	C269.543732,619.292297 276.909027,606.235352 284.806396,593.179688 
	C287.547333,593.324585 290.145020,594.275146 291.848358,593.427734 
	C295.771942,591.475952 299.048248,588.223450 302.971130,586.269470 
	C310.754944,582.392578 318.806488,579.054871 326.719482,575.433350 
	C327.433411,575.106567 327.934937,574.325928 328.551636,573.774597 
	C332.609894,570.146606 336.451965,566.229309 340.791931,562.976562 
	C345.786652,559.233032 351.498901,556.427979 356.387146,552.566711 
	C360.975037,548.942566 364.994904,544.569153 369.072021,540.339722 
	C371.691437,537.622437 373.847900,534.463257 376.415894,531.691162 
	C380.227905,527.576172 384.491730,523.855591 388.083496,519.565491 
	C397.294495,508.563782 406.170044,497.281830 415.327148,486.234070 
	C419.187714,481.576385 424.025604,477.628357 427.334991,472.638672 
	C431.879639,465.786530 435.254913,458.154877 442.528900,453.483215 
	C443.316467,452.977386 443.857056,452.006622 444.368958,451.164398 
	C449.079163,443.415344 453.779999,435.660400 458.440369,427.881317 
	C465.949982,415.346252 473.225159,402.665344 480.976105,390.281860 
	C488.242920,378.671814 493.692139,365.633850 505.572266,357.452057 
	C505.965668,357.181122 506.406921,356.739838 506.499969,356.307770 
	C508.574219,346.673401 518.429810,343.061432 522.857788,335.010376 
	C526.624817,328.161133 533.344849,322.944427 537.166321,316.114655 
	C543.018738,305.655151 551.465698,297.589020 559.652466,289.345215 
	C563.570374,285.399933 565.238220,281.821960 564.171692,276.664520 
	C569.744324,286.208069 575.317017,295.751617 580.712341,305.680908 
	C578.863281,304.581909 577.191589,303.097229 574.451111,300.663391 
	C569.508606,304.754883 564.058228,308.412659 559.720520,313.100006 
	C555.456116,317.708191 552.389709,323.411713 548.645813,328.523499 
	C547.611816,329.935333 545.996826,330.910034 544.717651,332.156403 
	C542.155884,334.652649 539.417603,337.013092 537.153381,339.760223 
	C531.930298,346.097168 526.909241,352.602631 521.890076,359.104462 
	C520.469116,360.945190 519.337646,363.009369 518.073425,364.971069 
z"/>
<path fill="#1235F5" opacity="1.000000" stroke="none" 
	d="
M454.856628,612.090698 
	C450.392609,609.968811 449.982208,606.938843 452.442047,602.859985 
	C454.886993,598.805847 456.970215,594.533508 459.801575,590.263672 
	C462.247772,591.945740 463.906952,594.832886 466.012634,595.206970 
	C468.488678,595.646851 471.525543,594.263367 474.018250,593.051453 
	C486.383972,587.039673 496.762970,577.484436 509.934601,572.844543 
	C511.234100,572.386780 512.147766,570.897705 513.311462,569.976990 
	C515.681641,568.101624 518.049255,566.215088 520.517212,564.473816 
	C522.140198,563.328735 524.134888,562.659851 525.621582,561.380737 
	C532.627075,555.353210 539.291077,548.905823 546.531494,543.183350 
	C550.597534,539.969727 551.812012,536.667969 550.480103,532.014771 
	C567.299866,531.994873 583.652344,531.978577 600.345459,531.946289 
	C601.992126,531.809998 603.317200,531.791199 604.601196,531.552368 
	C611.643494,530.242798 614.552429,532.584900 614.724670,540.181274 
	C609.351074,544.360535 603.799866,547.899048 599.245483,552.437744 
	C585.822266,565.814636 569.568848,575.317749 554.062317,585.760071 
	C545.599304,591.459167 537.432434,597.028320 531.695007,605.673523 
	C532.525879,606.866638 533.270081,607.935486 533.544800,609.005981 
	C508.148804,609.007751 483.222412,609.007751 458.296021,609.007751 
	C458.296875,609.332520 458.297729,609.657349 458.298584,609.982117 
	C476.208832,609.982117 494.119110,609.982117 512.025330,610.319092 
	C512.023987,611.104797 512.026611,611.553650 511.558807,612.005371 
	C492.344421,612.035706 473.600525,612.063171 454.856628,612.090698 
z"/>
<path fill="#02CAD7" opacity="1.000000" stroke="none" 
	d="
M564.191345,276.351227 
	C565.238220,281.821960 563.570374,285.399933 559.652466,289.345215 
	C551.465698,297.589020 543.018738,305.655151 537.166321,316.114655 
	C533.344849,322.944427 526.624817,328.161133 522.857788,335.010376 
	C518.429810,343.061432 508.574219,346.673401 506.499969,356.307770 
	C506.406921,356.739838 505.965668,357.181122 505.572266,357.452057 
	C493.692139,365.633850 488.242920,378.671814 480.976105,390.281860 
	C473.225159,402.665344 465.949982,415.346252 458.440369,427.881317 
	C453.779999,435.660400 449.079163,443.415344 444.368958,451.164398 
	C443.857056,452.006622 443.316467,452.977386 442.528900,453.483215 
	C435.254913,458.154877 431.879639,465.786530 427.334991,472.638672 
	C424.025604,477.628357 419.187714,481.576385 415.327148,486.234070 
	C406.170044,497.281830 397.294495,508.563782 388.083496,519.565491 
	C384.491730,523.855591 380.227905,527.576172 376.415894,531.691162 
	C373.847900,534.463257 371.691437,537.622437 369.072021,540.339722 
	C364.994904,544.569153 360.975037,548.942566 356.387146,552.566711 
	C351.498901,556.427979 345.786652,559.233032 340.791931,562.976562 
	C336.451965,566.229309 332.609894,570.146606 328.551636,573.774597 
	C327.934937,574.325928 327.433411,575.106567 326.719482,575.433350 
	C318.806488,579.054871 310.754944,582.392578 302.971130,586.269470 
	C299.048248,588.223450 295.771942,591.475952 291.848358,593.427734 
	C290.145020,594.275146 287.547333,593.324585 285.078186,592.966797 
	C288.690155,585.608459 292.579742,578.473999 297.071503,571.086548 
	C301.939178,567.446716 306.204712,564.059692 310.463684,560.677917 
	C312.513550,563.350464 312.686188,563.300720 314.945404,560.691711 
	C316.211884,559.229126 317.664734,557.783325 319.322266,556.833740 
	C322.904144,554.781677 327.074341,553.571106 330.274567,551.079590 
	C335.812012,546.768433 340.671448,541.598755 346.045898,537.062500 
	C351.378326,532.561768 357.174927,528.605347 362.444000,524.036560 
	C369.754120,517.697998 376.790283,511.041229 383.864716,504.436066 
	C384.798004,503.564697 385.374786,502.245483 385.932007,501.047791 
	C390.138855,492.005096 396.386261,484.718262 404.560638,479.025391 
	C405.895081,478.096100 407.178955,476.968689 408.166290,475.686493 
	C415.592743,466.041992 423.033417,456.405792 430.287720,446.631927 
	C440.313232,433.124359 450.385834,419.643036 460.029724,405.864532 
	C465.107178,398.610168 469.237579,390.698456 473.964508,383.189941 
	C475.433472,380.856598 477.714142,379.033173 479.175354,376.696289 
	C482.647858,371.142792 485.309357,365.004211 489.271942,359.850433 
	C499.372528,346.713409 510.125122,334.080017 520.387573,321.064331 
	C528.429321,310.865112 536.023865,300.313721 544.038879,290.092682 
	C546.650146,286.762726 549.499329,283.113678 553.087769,281.204803 
	C556.359924,279.464203 557.875916,277.929535 557.777771,274.328278 
	C557.729675,272.565308 558.479736,270.780548 559.063599,269.234924 
	C559.918396,269.888153 560.578247,270.312103 561.238098,270.736084 
	C561.238098,270.736053 561.318604,270.790131 561.282715,271.157410 
	C561.812195,272.340515 562.377441,273.156372 562.942749,273.972229 
	C563.365479,274.660797 563.788269,275.349365 564.191345,276.351227 
z"/>
<path fill="#63129D" opacity="1.000000" stroke="none" 
	d="
M716.000000,713.000000 
	C724.184143,717.195312 732.376099,721.375427 740.540710,725.608337 
	C741.408325,726.058105 742.335388,726.670105 742.862000,727.456482 
	C746.663208,733.132385 752.677063,732.602600 758.348450,733.254456 
	C760.918213,733.549805 763.557007,734.106384 765.923889,735.111145 
	C769.909912,736.803284 773.200684,740.535400 778.246216,738.824219 
	C778.693481,738.672607 779.619019,739.154053 779.969055,739.611816 
	C784.072083,744.976501 789.757446,744.851196 795.757751,744.815491 
	C801.461243,744.781494 807.162476,745.916626 812.880127,746.317139 
	C819.754272,746.798767 819.761353,746.697815 818.433044,739.605530 
	C820.769104,741.576599 822.627808,743.144897 824.824951,744.770142 
	C825.163452,744.827026 825.142029,744.858154 825.119080,745.221863 
	C826.419250,747.354370 827.742432,749.123230 829.065613,750.892029 
	C833.602722,759.178772 838.366638,767.352051 842.592896,775.794373 
	C845.180725,780.963928 842.085510,786.460266 836.123413,786.455261 
	C815.547913,786.438049 794.877808,786.888489 774.426758,785.085327 
	C757.102356,783.557861 745.777954,771.397339 737.026123,757.220825 
	C731.467163,748.216309 726.494385,738.849976 721.231079,729.181824 
	C721.221741,728.449829 721.131348,728.220276 720.932129,728.029175 
	C720.932129,728.029175 720.999023,728.018738 720.969604,727.641846 
	C720.441162,724.358582 720.901855,720.859192 716.627563,720.285706 
	C716.627563,720.285706 716.647705,720.221497 716.733765,719.824097 
	C716.546570,717.284485 716.273315,715.142273 716.000000,713.000000 
z"/>
<path fill="#02D0D7" opacity="1.000000" stroke="none" 
	d="
M558.868530,269.005646 
	C558.479736,270.780548 557.729675,272.565308 557.777771,274.328278 
	C557.875916,277.929535 556.359924,279.464203 553.087769,281.204803 
	C549.499329,283.113678 546.650146,286.762726 544.038879,290.092682 
	C536.023865,300.313721 528.429321,310.865112 520.387573,321.064331 
	C510.125122,334.080017 499.372528,346.713409 489.271942,359.850433 
	C485.309357,365.004211 482.647858,371.142792 479.175354,376.696289 
	C477.714142,379.033173 475.433472,380.856598 473.964508,383.189941 
	C469.237579,390.698456 465.107178,398.610168 460.029724,405.864532 
	C450.385834,419.643036 440.313232,433.124359 430.287720,446.631927 
	C423.033417,456.405792 415.592743,466.041992 408.166290,475.686493 
	C407.178955,476.968689 405.895081,478.096100 404.560638,479.025391 
	C396.386261,484.718262 390.138855,492.005096 385.932007,501.047791 
	C385.374786,502.245483 384.798004,503.564697 383.864716,504.436066 
	C376.790283,511.041229 369.754120,517.697998 362.444000,524.036560 
	C357.174927,528.605347 351.378326,532.561768 346.045898,537.062500 
	C340.671448,541.598755 335.812012,546.768433 330.274567,551.079590 
	C327.074341,553.571106 322.904144,554.781677 319.322266,556.833740 
	C317.664734,557.783325 316.211884,559.229126 314.945404,560.691711 
	C312.686188,563.300720 312.513550,563.350464 310.463684,560.677917 
	C306.204712,564.059692 301.939178,567.446716 297.320374,570.845398 
	C302.036316,561.946960 307.100159,553.033752 312.180115,544.129761 
	C313.040833,542.621094 313.970917,541.152039 315.009094,539.331482 
	C317.548065,538.224365 320.486298,538.440857 320.827240,534.583801 
	C320.921234,533.520691 323.101196,532.396851 324.526276,531.739075 
	C330.619232,528.926270 336.801514,526.307495 342.908264,523.523743 
	C343.543182,523.234314 344.363312,522.268372 344.301392,521.703735 
	C343.793823,517.077026 347.143799,515.690247 350.402191,515.328247 
	C356.979187,514.597595 360.893768,509.166504 362.911865,505.033478 
	C366.136810,498.428894 372.506500,496.713043 376.726776,492.108673 
	C379.910156,488.635468 382.948578,485.029388 386.049927,481.481079 
	C387.331970,480.014343 388.577454,478.514221 389.894958,477.080170 
	C399.359253,466.778198 409.120636,456.730438 418.189270,446.091858 
	C422.541260,440.986481 425.368286,434.612335 429.295807,429.105072 
	C433.133911,423.723236 437.743378,418.890106 441.560547,413.495087 
	C446.229553,406.896118 450.207916,399.808350 454.878784,393.210785 
	C461.813629,383.415436 469.165955,373.916779 476.203278,364.192474 
	C481.211700,357.271606 485.750854,350.001007 490.938293,343.222290 
	C497.541931,334.592896 505.267639,326.749390 511.213531,317.714172 
	C515.407532,311.341064 520.890991,306.742645 526.105713,301.557098 
	C530.629761,297.058350 534.215637,291.535919 537.787781,286.180176 
	C542.334900,279.362701 546.256348,272.124634 550.878967,265.362793 
	C552.146362,263.508850 549.158081,259.704376 553.956299,259.717712 
	C554.252258,259.770416 554.187622,259.863159 554.367798,259.973846 
	C554.728333,260.388611 554.908752,260.692688 555.089111,260.996765 
	C555.089111,260.996765 555.009705,260.980865 555.203918,261.112427 
	C555.623474,261.495758 555.848816,261.747528 556.074097,261.999298 
	C556.074097,261.999298 556.013245,261.978485 556.137939,262.223785 
	C556.584167,262.956177 556.905701,263.443268 557.227234,263.930328 
	C557.227234,263.930328 557.226929,263.803650 557.246033,264.152405 
	C557.799561,266.002655 558.334045,267.504150 558.868530,269.005646 
z"/>
<path fill="#089AD8" opacity="1.000000" stroke="none" 
	d="
M339.356995,667.178467 
	C332.154022,680.372009 324.951050,693.565491 317.451538,706.593994 
	C317.154999,704.843445 317.154999,703.257935 317.154999,700.582581 
	C313.998596,701.976562 311.596069,702.884216 309.334900,704.063171 
	C300.416534,708.712891 291.759491,713.932190 282.599457,718.033325 
	C270.082397,723.637451 257.198578,728.423096 244.464279,733.540588 
	C241.403763,734.770508 238.213745,735.720032 235.254593,737.152405 
	C226.555511,741.363098 217.947174,745.760925 209.292969,750.064697 
	C206.783813,751.312500 204.312012,752.688049 201.691315,753.643677 
	C199.163330,754.565491 196.465256,755.020874 193.841888,755.681152 
	C198.877655,746.576843 203.911758,737.471558 208.950409,728.368896 
	C210.069336,726.347473 211.204498,724.335083 212.782166,721.879639 
	C213.424927,720.895569 213.617676,720.350281 213.810425,719.805054 
	C213.810440,719.805054 213.967545,719.854858 214.097534,719.682251 
	C214.451492,718.966675 214.675461,718.423706 214.899445,717.880737 
	C214.899445,717.880737 214.863098,717.903198 215.221146,717.923096 
	C216.053604,717.957764 216.528030,717.972595 217.284760,717.916809 
	C218.047867,716.897705 218.528671,715.949341 219.023132,714.675903 
	C219.065094,713.918701 219.093399,713.486450 219.434250,713.096069 
	C222.223312,714.960449 224.377563,714.863281 227.216110,713.213989 
	C235.344574,708.491211 243.728592,704.203247 252.065659,699.846802 
	C256.014526,697.783203 260.115143,696.012024 264.094788,694.004822 
	C272.201660,689.916016 280.251312,685.713440 288.367645,681.643738 
	C292.988068,679.326904 297.823029,677.410461 302.322174,674.887207 
	C306.303375,672.654358 309.938538,669.808716 313.753571,667.274475 
	C318.244019,664.291565 322.842560,661.463867 327.236542,658.346558 
	C329.352722,656.845276 331.033539,654.745422 333.043243,653.075134 
	C335.815247,650.771301 338.613129,648.473083 341.583405,646.440613 
	C344.435394,644.489136 347.521332,642.879578 351.356720,640.617004 
	C350.372192,644.469421 349.770294,646.824585 349.168396,649.179810 
	C349.168396,649.179810 349.122345,649.065063 348.844666,649.222656 
	C348.226685,650.355652 347.886353,651.331055 347.546021,652.306519 
	C347.546051,652.306519 347.527832,652.338074 347.180603,652.458435 
	C345.617279,655.111206 344.401184,657.643616 343.185089,660.176025 
	C343.185089,660.176025 343.078217,660.099670 342.968353,660.267456 
	C342.594696,660.670898 342.330933,660.906555 342.067139,661.142151 
	C342.067139,661.142151 342.506378,660.974304 342.329926,661.347046 
	C341.889404,662.236572 341.625305,662.753418 341.361237,663.270203 
	C341.361237,663.270203 341.397614,663.273926 341.105743,663.385986 
	C340.328247,664.724915 339.842621,665.951660 339.356995,667.178467 
z"/>
<path fill="#01E0D9" opacity="1.000000" stroke="none" 
	d="
M536.460571,244.233704 
	C533.403442,245.736893 530.735596,247.059433 531.561646,251.861572 
	C531.913025,253.904266 529.623596,256.633179 528.089417,258.723816 
	C523.883728,264.455139 521.869141,271.399139 515.832397,276.285065 
	C510.207550,280.837646 506.399719,287.624054 501.743835,293.388214 
	C497.476166,298.671631 492.120941,303.377380 489.086456,309.283783 
	C484.815247,317.597443 475.862610,321.661407 472.384094,330.975555 
	C469.816284,337.851196 463.108612,343.151367 458.391754,349.266327 
	C456.106110,352.229401 454.382690,355.637543 452.012390,358.521759 
	C444.872498,367.209869 436.505096,375.090179 430.585449,384.521423 
	C425.107635,393.248718 418.287445,400.523193 411.699036,408.168488 
	C410.325958,409.761810 409.168579,411.864136 408.755585,413.902832 
	C407.349976,420.840637 404.550629,426.825592 398.679382,431.082764 
	C396.207367,432.875244 393.732483,434.663971 391.273743,436.474518 
	C390.240509,437.235382 389.288879,438.113373 388.222778,438.821655 
	C386.794434,439.770630 385.288727,440.602783 383.820435,441.492035 
	C382.244598,442.446472 379.992737,443.039490 379.232727,444.439789 
	C377.235535,448.119720 374.561218,450.109833 370.417511,450.840881 
	C368.060944,451.256653 365.909241,452.833405 363.302368,453.934357 
	C364.988434,449.539764 366.739044,444.929199 369.141235,440.687592 
	C376.926880,426.940430 384.951569,413.328644 393.322571,399.191101 
	C395.192932,396.959808 396.624878,395.202118 398.102386,393.388489 
	C399.430817,394.106964 400.524048,394.698273 402.593506,395.817566 
	C404.253754,390.939392 405.757263,386.521759 407.165009,382.385498 
	C409.009674,381.659546 411.627472,381.460815 412.693787,380.071442 
	C418.540802,372.452728 429.722290,368.750763 429.926544,356.941528 
	C429.933502,356.538147 430.434570,356.083344 430.798157,355.755432 
	C434.187988,352.698730 433.442596,345.776825 440.116669,345.760315 
	C440.315308,345.759827 440.519409,345.266663 440.709564,344.995239 
	C443.064758,341.634125 445.326324,338.202881 447.789612,334.923096 
	C453.608612,327.175354 457.929443,318.136627 466.677521,312.876923 
	C467.327301,312.486298 467.746735,311.620636 468.135132,310.901215 
	C472.027191,303.691711 477.712616,298.267487 484.635712,294.002167 
	C485.703949,293.343994 487.081940,292.182526 487.193848,291.133972 
	C488.307495,280.700012 498.398682,276.858276 503.181244,269.132935 
	C505.157043,265.941406 507.741791,263.010193 510.498901,260.443176 
	C516.323914,255.019760 520.265686,248.624481 522.268738,240.331207 
	C525.408386,240.827164 528.735046,241.352676 532.061707,241.878174 
	C533.430176,242.608063 534.798645,243.337952 536.460571,244.233704 
z"/>
<path fill="#05B4D7" opacity="1.000000" stroke="none" 
	d="
M232.383545,686.746460 
	C236.684052,678.969543 240.984543,671.192566 245.925537,663.194580 
	C247.978958,661.987183 249.589447,661.190491 250.759628,659.971191 
	C252.629486,658.022827 253.903915,654.451538 255.975739,653.983887 
	C259.474243,653.194275 260.990143,651.374756 262.471832,648.617126 
	C263.085571,647.474915 264.618317,646.786560 265.804871,646.000183 
	C268.341278,644.319214 270.976013,642.782959 273.473999,641.048523 
	C275.911407,639.356018 278.314880,637.592957 280.583221,635.682678 
	C288.754883,628.800781 301.212158,629.055603 307.694580,619.374695 
	C307.861786,619.124939 308.241547,618.891541 308.536835,618.872009 
	C315.434418,618.415833 319.366394,612.831665 324.632263,609.567871 
	C329.813324,606.356689 335.067322,603.233948 340.028351,599.705505 
	C344.701721,596.381714 348.690948,591.996704 353.588043,589.106995 
	C364.456390,582.693787 372.046906,573.018005 380.061890,563.781494 
	C389.047913,553.425903 396.447906,541.702148 406.912109,532.619751 
	C408.372742,531.352051 410.025787,530.306030 411.589783,529.157410 
	C411.884796,529.448059 412.179840,529.738708 412.474854,530.029358 
	C412.039612,532.403625 411.604340,534.777832 411.169067,537.152100 
	C411.169067,537.152100 411.088928,537.082947 410.943970,537.280762 
	C410.555450,538.016174 410.311859,538.553833 410.068237,539.091492 
	C410.068237,539.091492 410.061737,539.023926 409.792969,539.210938 
	C408.070587,541.968994 406.616974,544.540100 405.163330,547.111145 
	C405.163330,547.111145 405.016479,547.048889 404.851776,547.203003 
	C404.424194,548.213745 404.161316,549.070374 403.898468,549.927002 
	C396.707886,563.177002 389.526031,576.431702 382.321869,589.674255 
	C379.783478,594.340332 377.190369,598.976562 374.336548,603.505981 
	C373.347351,599.403564 372.033264,600.239685 369.612091,602.416992 
	C365.104462,606.470459 360.213745,610.099670 355.458923,613.875793 
	C353.086731,615.759766 350.604248,617.508789 348.285187,619.454285 
	C347.034668,620.503357 346.204407,622.107483 344.874695,622.999084 
	C337.609039,627.870483 330.324371,632.722839 322.893158,637.335083 
	C317.321045,640.793457 311.540680,643.920532 305.809845,647.117615 
	C301.617035,649.456726 297.344482,651.652405 293.124725,653.943787 
	C287.065338,657.234131 280.908997,660.368469 275.027679,663.952820 
	C272.725891,665.355591 271.381287,668.404419 269.040527,669.654541 
	C260.605957,674.159058 251.972443,678.300476 243.330231,682.402405 
	C239.791321,684.082092 236.038849,685.311951 232.383545,686.746460 
z"/>
<path fill="#03E8DC" opacity="1.000000" stroke="none" 
	d="
M531.917603,241.555481 
	C528.735046,241.352676 525.408386,240.827164 522.268738,240.331207 
	C520.265686,248.624481 516.323914,255.019760 510.498901,260.443176 
	C507.741791,263.010193 505.157043,265.941406 503.181244,269.132935 
	C498.398682,276.858276 488.307495,280.700012 487.193848,291.133972 
	C487.081940,292.182526 485.703949,293.343994 484.635712,294.002167 
	C477.712616,298.267487 472.027191,303.691711 468.135132,310.901215 
	C467.746735,311.620636 467.327301,312.486298 466.677521,312.876923 
	C457.929443,318.136627 453.608612,327.175354 447.789612,334.923096 
	C445.326324,338.202881 443.064758,341.634125 440.709564,344.995239 
	C440.519409,345.266663 440.315308,345.759827 440.116669,345.760315 
	C433.442596,345.776825 434.187988,352.698730 430.798157,355.755432 
	C430.434570,356.083344 429.933502,356.538147 429.926544,356.941528 
	C429.722290,368.750763 418.540802,372.452728 412.693787,380.071442 
	C411.627472,381.460815 409.009674,381.659546 407.165009,382.385498 
	C405.757263,386.521759 404.253754,390.939392 402.593506,395.817566 
	C400.524048,394.698273 399.430817,394.106964 398.102386,393.388489 
	C396.624878,395.202118 395.192932,396.959808 393.464722,398.857422 
	C397.124908,391.445648 400.891296,383.786377 405.087402,376.370239 
	C410.015564,367.660156 415.527374,359.278473 420.398590,350.538422 
	C425.477814,341.425232 429.902496,331.947937 434.958923,322.821320 
	C443.143097,308.049347 451.597992,293.427185 459.962524,278.755432 
	C463.782593,272.054840 466.783600,264.644257 471.689972,258.855804 
	C482.529358,246.067627 495.510071,236.044205 513.584961,237.173706 
	C519.708435,237.556381 525.713989,239.825653 531.917603,241.555481 
M519.524841,239.499466 
	C519.524841,239.499466 519.487183,239.511658 519.524841,239.499466 
z"/>
<path fill="#5817B4" opacity="1.000000" stroke="none" 
	d="
M737.871094,587.632202 
	C737.865540,590.410767 737.829407,592.895447 737.467163,595.331543 
	C737.292664,596.505310 736.739319,597.798279 735.954285,598.677063 
	C731.017700,604.203796 725.803894,609.489319 720.994019,615.121216 
	C713.895752,623.432434 706.866577,631.818237 700.189453,640.466797 
	C696.765991,644.901062 694.520203,650.250854 691.051941,654.641663 
	C689.331482,656.819641 686.051392,657.765686 683.165955,659.195312 
	C682.855042,659.121582 682.882019,659.085144 682.878113,658.752319 
	C682.161377,657.315735 681.448608,656.212097 680.735779,655.108398 
	C680.735779,655.108398 680.810547,655.143494 680.794067,654.840942 
	C680.166260,653.707764 679.554932,652.877258 678.943542,652.046692 
	C678.943542,652.046692 678.997559,651.999695 678.949463,651.680908 
	C678.185120,650.269104 677.468933,649.176086 676.752808,648.083008 
	C676.752808,648.083008 676.845825,648.118591 676.827209,647.990356 
	C676.523071,647.646912 676.237549,647.431702 675.952026,647.216553 
	C671.374084,639.035034 666.796204,630.853455 662.230103,622.116028 
	C662.512451,620.311157 662.783081,619.062134 662.911804,618.468201 
	C665.122253,617.471191 667.191589,617.054321 668.526184,615.833923 
	C671.825378,612.817078 674.978271,609.591980 677.852966,606.167664 
	C690.214111,591.443054 702.385132,576.558228 714.823120,561.899536 
	C716.410522,560.028809 719.159424,559.143677 721.370239,557.801941 
	C726.815613,567.640747 732.260986,577.479492 737.871094,587.632202 
z"/>
<path fill="#05BDD7" opacity="1.000000" stroke="none" 
	d="
M411.432983,536.939148 
	C411.604340,534.777832 412.039612,532.403625 412.474854,530.029358 
	C412.179840,529.738708 411.884796,529.448059 411.589783,529.157410 
	C410.025787,530.306030 408.372742,531.352051 406.912109,532.619751 
	C396.447906,541.702148 389.047913,553.425903 380.061890,563.781494 
	C372.046906,573.018005 364.456390,582.693787 353.588043,589.106995 
	C348.690948,591.996704 344.701721,596.381714 340.028351,599.705505 
	C335.067322,603.233948 329.813324,606.356689 324.632263,609.567871 
	C319.366394,612.831665 315.434418,618.415833 308.536835,618.872009 
	C308.241547,618.891541 307.861786,619.124939 307.694580,619.374695 
	C301.212158,629.055603 288.754883,628.800781 280.583221,635.682678 
	C278.314880,637.592957 275.911407,639.356018 273.473999,641.048523 
	C270.976013,642.782959 268.341278,644.319214 265.804871,646.000183 
	C264.618317,646.786560 263.085571,647.474915 262.471832,648.617126 
	C260.990143,651.374756 259.474243,653.194275 255.975739,653.983887 
	C253.903915,654.451538 252.629486,658.022827 250.759628,659.971191 
	C249.589447,661.190491 247.978958,661.987183 246.185120,662.986694 
	C249.975983,655.776672 254.153778,648.556885 258.314850,641.327576 
	C259.198975,639.791565 260.022278,638.220581 261.014465,636.332031 
	C264.394287,633.369446 267.645721,630.755737 270.869171,628.107971 
	C275.277863,624.486694 279.656860,620.829285 284.073212,617.217529 
	C284.577942,616.804749 285.457367,616.737793 285.798218,616.253662 
	C292.366455,606.923340 303.801727,604.958435 312.410675,598.687500 
	C318.402069,594.323242 324.765900,590.255615 331.463776,587.126648 
	C341.295197,582.533936 348.278442,574.515198 356.660980,568.201721 
	C364.433685,562.347595 371.709625,556.165833 377.898895,548.651917 
	C386.760803,537.893433 395.729370,527.221924 404.733948,516.582275 
	C410.441956,509.837769 415.763672,502.633545 422.243713,496.713837 
	C428.287994,491.192200 431.655945,483.946136 436.834015,477.976440 
	C439.158020,475.297211 442.156525,473.213898 444.644562,470.660980 
	C445.696503,469.581665 446.366119,468.048706 446.957275,466.617737 
	C448.342896,463.263885 449.341736,459.722198 451.035004,456.543030 
	C451.462402,455.740570 453.912231,456.015320 455.726746,455.896667 
	C442.443146,480.730316 428.865631,505.462372 415.287720,530.194275 
	C414.091980,532.372253 412.893829,534.548889 411.432983,536.939148 
z"/>
<path fill="#06A8D8" opacity="1.000000" stroke="none" 
	d="
M232.381409,686.752502 
	C236.038849,685.311951 239.791321,684.082092 243.330231,682.402405 
	C251.972443,678.300476 260.605957,674.159058 269.040527,669.654541 
	C271.381287,668.404419 272.725891,665.355591 275.027679,663.952820 
	C280.908997,660.368469 287.065338,657.234131 293.124725,653.943787 
	C297.344482,651.652405 301.617035,649.456726 305.809845,647.117615 
	C311.540680,643.920532 317.321045,640.793457 322.893158,637.335083 
	C330.324371,632.722839 337.609039,627.870483 344.874695,622.999084 
	C346.204407,622.107483 347.034668,620.503357 348.285187,619.454285 
	C350.604248,617.508789 353.086731,615.759766 355.458923,613.875793 
	C360.213745,610.099670 365.104462,606.470459 369.612091,602.416992 
	C372.033264,600.239685 373.347351,599.403564 374.090210,603.741333 
	C374.129639,604.097046 374.069794,604.057007 373.930908,604.237671 
	C373.549225,604.666138 373.306488,604.914001 373.063721,605.161865 
	C373.063721,605.161865 373.179565,604.986877 373.079834,605.296936 
	C372.757233,606.181030 372.534363,606.755127 372.311493,607.329163 
	C372.311493,607.329163 372.236816,607.157532 372.106018,607.343628 
	C371.704041,608.071960 371.432892,608.614136 371.161774,609.156311 
	C371.161774,609.156311 371.225952,609.183044 370.888000,609.299072 
	C368.760223,612.991577 366.970428,616.567932 365.180634,620.144348 
	C365.180634,620.144348 365.079987,620.098938 364.936432,620.296021 
	C364.570801,621.044128 364.348755,621.595215 364.126709,622.146301 
	C364.126678,622.146301 364.066772,622.063843 363.946838,622.246704 
	C363.570251,622.668823 363.313599,622.908203 363.056915,623.147522 
	C363.056915,623.147522 363.419525,623.019836 363.142212,623.315918 
	C362.343231,624.825867 361.821503,626.039734 361.299774,627.253662 
	C361.299774,627.253662 361.217926,627.143311 361.011108,627.325500 
	C360.243713,628.710327 359.683105,629.912964 359.122498,631.115601 
	C359.122498,631.115601 359.149261,631.046021 359.074036,631.166382 
	C358.832397,631.473633 358.799225,631.684509 358.899292,631.919434 
	C355.831512,637.529114 352.763763,643.138794 349.432190,648.964111 
	C349.770294,646.824585 350.372192,644.469421 351.356720,640.617004 
	C347.521332,642.879578 344.435394,644.489136 341.583405,646.440613 
	C338.613129,648.473083 335.815247,650.771301 333.043243,653.075134 
	C331.033539,654.745422 329.352722,656.845276 327.236542,658.346558 
	C322.842560,661.463867 318.244019,664.291565 313.753571,667.274475 
	C309.938538,669.808716 306.303375,672.654358 302.322174,674.887207 
	C297.823029,677.410461 292.988068,679.326904 288.367645,681.643738 
	C280.251312,685.713440 272.201660,689.916016 264.094788,694.004822 
	C260.115143,696.012024 256.014526,697.783203 252.065659,699.846802 
	C243.728592,704.203247 235.344574,708.491211 227.216110,713.213989 
	C224.377563,714.863281 222.223312,714.960449 219.586548,712.786011 
	C219.884033,710.916321 220.341721,709.398621 220.799408,707.880859 
	C220.799408,707.880859 220.916718,707.880981 221.069962,707.677124 
	C221.387604,706.896973 221.552002,706.320557 221.716400,705.744202 
	C221.716400,705.744202 221.891098,705.806702 222.019730,705.655762 
	C222.415390,704.988831 222.682419,704.472778 222.949448,703.956726 
	C222.949432,703.956726 222.927948,703.945740 223.230789,703.802795 
	C223.936188,702.720032 224.338730,701.780212 224.741302,700.840454 
	C224.741318,700.840454 224.815536,700.836304 225.083694,700.675842 
	C225.871613,699.317017 226.391373,698.118713 226.911148,696.920410 
	C226.911163,696.920410 226.890793,696.910522 227.212067,696.805664 
	C230.174713,693.893494 234.853256,692.080139 232.376083,686.775452 
	C232.376083,686.775452 232.379288,686.758545 232.381409,686.752502 
z"/>
<path fill="#1241F2" opacity="1.000000" stroke="none" 
	d="
M550.012878,532.018250 
	C551.812012,536.667969 550.597534,539.969727 546.531494,543.183350 
	C539.291077,548.905823 532.627075,555.353210 525.621582,561.380737 
	C524.134888,562.659851 522.140198,563.328735 520.517212,564.473816 
	C518.049255,566.215088 515.681641,568.101624 513.311462,569.976990 
	C512.147766,570.897705 511.234100,572.386780 509.934601,572.844543 
	C496.762970,577.484436 486.383972,587.039673 474.018250,593.051453 
	C471.525543,594.263367 468.488678,595.646851 466.012634,595.206970 
	C463.906952,594.832886 462.247772,591.945740 460.058655,590.041870 
	C469.025146,572.948608 478.280060,555.959534 487.678467,539.050232 
	C488.855103,536.933350 490.789520,535.237549 492.818665,533.272827 
	C493.545837,533.173462 493.751495,533.029968 493.881409,532.768372 
	C493.881409,532.768372 493.911530,532.835327 494.305969,532.832275 
	C497.506134,532.555359 500.310760,532.057922 503.117706,532.044739 
	C518.749146,531.971008 534.381104,532.014709 550.012878,532.018250 
z"/>
<path fill="#2E23E0" opacity="1.000000" stroke="none" 
	d="
M694.178955,509.458740 
	C696.398926,513.357178 698.618896,517.255615 700.873779,521.844543 
	C696.971313,531.896179 689.487000,538.561096 683.008850,545.975830 
	C676.271301,553.687378 668.849731,560.863770 662.690796,569.003296 
	C653.796814,580.757568 644.608887,592.151611 634.091431,602.516846 
	C629.029602,607.505371 623.632874,609.863892 616.471924,609.126282 
	C611.048157,608.567749 605.518921,609.033386 600.064209,608.673584 
	C602.801697,598.120850 612.147217,593.328003 618.324463,585.967896 
	C622.221191,581.324951 626.696106,577.171570 630.684998,572.600830 
	C638.627380,563.499939 646.259277,554.124268 654.327515,545.138733 
	C658.500305,540.491577 663.820190,536.835754 667.759705,532.026001 
	C674.789307,523.443787 681.924438,515.154602 692.037231,510.280853 
	C692.420227,510.964478 692.765930,511.367249 693.111633,511.769989 
	C693.467407,510.999573 693.823181,510.229156 694.178955,509.458740 
z"/>
<path fill="#0891D9" opacity="1.000000" stroke="none" 
	d="
M193.587372,755.922852 
	C196.465256,755.020874 199.163330,754.565491 201.691315,753.643677 
	C204.312012,752.688049 206.783813,751.312500 209.292969,750.064697 
	C217.947174,745.760925 226.555511,741.363098 235.254593,737.152405 
	C238.213745,735.720032 241.403763,734.770508 244.464279,733.540588 
	C257.198578,728.423096 270.082397,723.637451 282.599457,718.033325 
	C291.759491,713.932190 300.416534,708.712891 309.334900,704.063171 
	C311.596069,702.884216 313.998596,701.976562 317.154999,700.582581 
	C317.154999,703.257935 317.154999,704.843445 317.187561,706.808960 
	C317.220093,707.189087 317.110199,707.111206 316.991211,707.270569 
	C316.605804,707.665222 316.339386,707.900513 316.072998,708.135803 
	C316.235260,708.088623 316.397552,708.041504 316.370300,708.382812 
	C315.962128,709.293701 315.743439,709.816101 315.524780,710.338501 
	C315.524811,710.338501 315.595154,710.380676 315.227753,710.500366 
	C313.312378,713.823547 311.764435,717.027100 310.216461,720.230591 
	C310.216461,720.230591 310.191559,720.126831 309.949768,720.283081 
	C309.288635,721.409485 308.869324,722.379761 308.450012,723.350037 
	C308.450043,723.350037 308.376404,723.233704 308.202576,723.416382 
	C307.774994,724.162842 307.521271,724.726624 307.267517,725.290466 
	C307.267548,725.290466 307.320160,725.275635 307.139893,725.294800 
	C306.787170,725.606750 306.614716,725.899475 306.442261,726.192261 
	C305.225250,728.697266 304.008240,731.202209 302.076324,733.882812 
	C297.985840,734.229431 294.370117,733.686340 291.285736,734.723328 
	C285.270111,736.745972 279.550568,739.650146 273.710571,742.194153 
	C268.770142,744.346252 263.773346,746.380493 258.910004,748.695007 
	C253.718185,751.165771 248.766663,754.160706 243.510849,756.473755 
	C231.295090,761.849854 218.884048,766.784912 206.700287,772.230164 
	C199.325195,775.526306 192.226959,779.441956 184.841156,782.936218 
	C184.073517,782.601807 183.469070,782.410400 182.864624,782.218994 
	C183.003647,779.779358 182.449020,777.015137 183.410553,774.960327 
	C186.409729,768.550842 189.982498,762.409729 193.587372,755.922852 
z"/>
<path fill="#252AE9" opacity="1.000000" stroke="none" 
	d="
M692.000000,510.000000 
	C681.924438,515.154602 674.789307,523.443787 667.759705,532.026001 
	C663.820190,536.835754 658.500305,540.491577 654.327515,545.138733 
	C646.259277,554.124268 638.627380,563.499939 630.684998,572.600830 
	C626.696106,577.171570 622.221191,581.324951 618.324463,585.967896 
	C612.147217,593.328003 602.801697,598.120850 599.653809,608.675903 
	C597.166626,609.347534 595.117493,609.647156 592.592529,609.966125 
	C565.420898,609.984314 538.725159,609.983215 512.029358,609.982117 
	C494.119110,609.982117 476.208832,609.982117 458.298584,609.982117 
	C458.297729,609.657349 458.296875,609.332520 458.296021,609.007751 
	C483.222412,609.007751 508.148804,609.007751 534.011780,609.008789 
	C543.944519,609.006592 552.940857,609.031738 561.936829,608.990356 
	C568.274536,608.961182 573.983765,609.790710 578.948242,602.866028 
	C584.518616,595.096191 592.941895,589.387512 600.040161,582.693298 
	C609.550049,573.724854 619.362061,565.033142 628.333618,555.550171 
	C636.937805,546.455444 643.599060,535.862427 648.153442,523.823608 
	C648.525635,523.413147 648.756653,523.197449 649.274902,522.883911 
	C650.029907,522.180481 650.512512,521.590576 651.240479,520.773193 
	C658.366821,513.429932 665.443054,506.489441 672.048828,499.126862 
	C675.506104,495.273438 678.105469,490.613861 684.351379,494.143555 
	C684.497925,494.226379 684.906006,493.846344 685.192078,493.682129 
	C687.422241,497.477051 689.652405,501.271942 691.973389,505.819794 
	C692.042786,507.715149 692.021423,508.857574 692.000000,510.000000 
z"/>
<path fill="#0985D9" opacity="1.000000" stroke="none" 
	d="
M185.004333,783.079285 
	C192.226959,779.441956 199.325195,775.526306 206.700287,772.230164 
	C218.884048,766.784912 231.295090,761.849854 243.510849,756.473755 
	C248.766663,754.160706 253.718185,751.165771 258.910004,748.695007 
	C263.773346,746.380493 268.770142,744.346252 273.710571,742.194153 
	C279.550568,739.650146 285.270111,736.745972 291.285736,734.723328 
	C294.370117,733.686340 297.985840,734.229431 301.788391,734.076111 
	C295.890839,747.072449 289.791351,760.253235 279.848663,770.959106 
	C272.054596,779.351562 262.308441,784.531860 249.993683,785.728394 
	C248.080170,785.342651 246.941742,785.021606 245.803513,785.022339 
	C225.771255,785.034607 205.739029,785.086243 185.706787,785.129333 
	C185.706787,785.129333 185.335114,785.091370 185.170746,784.700195 
	C185.005707,783.899048 185.005020,783.489197 185.004333,783.079285 
z"/>
<path fill="#411CCE" opacity="1.000000" stroke="none" 
	d="
M593.068298,609.946777 
	C595.117493,609.647156 597.166626,609.347534 599.626221,609.045654 
	C605.518921,609.033386 611.048157,608.567749 616.471924,609.126282 
	C623.632874,609.863892 629.029602,607.505371 634.091431,602.516846 
	C644.608887,592.151611 653.796814,580.757568 662.690796,569.003296 
	C668.849731,560.863770 676.271301,553.687378 683.008850,545.975830 
	C689.487000,538.561096 696.971313,531.896179 701.004028,522.164673 
	C704.677551,527.941833 708.255676,534.089355 711.884033,540.928955 
	C704.332214,552.204407 697.022888,563.015076 689.033875,573.297668 
	C682.860413,581.243469 676.242065,588.943665 669.055786,595.969849 
	C663.619751,601.284729 660.938293,610.537842 650.477173,610.077148 
	C638.329102,610.064209 626.642334,610.058044 614.489807,610.049805 
	C607.038818,610.014099 600.053528,609.980408 593.068298,609.946777 
z"/>
<path fill="#06A8D8" opacity="1.000000" stroke="none" 
	d="
M542.191040,406.948364 
	C538.497803,400.521484 534.804626,394.094604 531.074219,387.218414 
	C531.024414,386.536285 530.900818,386.380035 530.666321,386.300323 
	C530.666321,386.300323 530.606262,386.272949 530.732178,385.874207 
	C533.955322,380.090820 536.419006,374.191681 540.284851,369.431152 
	C547.774475,360.208313 556.018066,351.594208 564.024353,342.796295 
	C566.791687,339.755310 569.601196,336.706726 572.711365,334.033905 
	C578.071899,329.427185 583.682983,325.112061 589.188965,320.674622 
	C589.188965,320.674622 589.268799,320.750336 589.285278,321.084290 
	C589.558167,321.950165 589.814697,322.482056 590.071167,323.013947 
	C590.071167,323.013947 590.012390,322.955444 590.165771,323.225861 
	C590.734070,323.989594 591.148987,324.482941 591.563965,324.976257 
	C595.083191,331.365204 598.602478,337.754120 601.796509,344.522522 
	C597.562134,344.048248 594.621948,345.039886 591.946228,348.373627 
	C585.937927,355.859558 579.548401,363.043610 573.216370,370.264954 
	C562.655762,382.308807 550.437683,392.947510 542.191040,406.948364 
z"/>
<path fill="#1C37EF" opacity="1.000000" stroke="none" 
	d="
M649.002441,522.997559 
	C648.756653,523.197449 648.525635,523.413147 647.787109,523.857422 
	C644.066101,525.951843 640.909973,527.911255 637.658386,529.696777 
	C633.078674,532.211487 628.501892,534.753662 623.780029,536.978943 
	C620.997925,538.290039 617.937744,539.011169 615.002625,539.997559 
	C614.552429,532.584900 611.643494,530.242798 604.601196,531.552368 
	C603.317200,531.791199 601.992126,531.809998 600.346741,531.638672 
	C600.009094,531.141724 600.010681,530.936340 600.012329,530.730896 
	C600.810242,530.172302 601.608154,529.613708 602.934998,529.064453 
	C603.950012,528.340332 604.436096,527.606812 604.922180,526.873352 
	C604.922180,526.873352 604.931641,526.941650 605.291260,526.922791 
	C606.766357,525.750427 608.001099,524.687256 608.963562,523.417786 
	C609.908630,522.171143 610.275513,520.348694 611.415649,519.409729 
	C618.932251,513.219543 626.727783,507.363678 634.160828,501.077667 
	C641.427063,494.932709 648.051453,487.993317 655.564026,482.187225 
	C660.830444,478.117096 667.115112,475.364319 672.945007,472.023224 
	C676.937500,479.031982 680.929993,486.040741 685.057251,493.365845 
	C684.906006,493.846344 684.497925,494.226379 684.351379,494.143555 
	C678.105469,490.613861 675.506104,495.273438 672.048828,499.126862 
	C665.443054,506.489441 658.366821,513.429932 650.968628,520.887329 
	C649.968384,521.818481 649.485413,522.408020 649.002441,522.997559 
z"/>
<path fill="#05B4D7" opacity="1.000000" stroke="none" 
	d="
M589.127319,320.338531 
	C583.682983,325.112061 578.071899,329.427185 572.711365,334.033905 
	C569.601196,336.706726 566.791687,339.755310 564.024353,342.796295 
	C556.018066,351.594208 547.774475,360.208313 540.284851,369.431152 
	C536.419006,374.191681 533.955322,380.090820 530.744019,385.843414 
	C526.511902,379.350983 522.393982,372.490662 518.174683,365.300690 
	C519.337646,363.009369 520.469116,360.945190 521.890076,359.104462 
	C526.909241,352.602631 531.930298,346.097168 537.153381,339.760223 
	C539.417603,337.013092 542.155884,334.652649 544.717651,332.156403 
	C545.996826,330.910034 547.611816,329.935333 548.645813,328.523499 
	C552.389709,323.411713 555.456116,317.708191 559.720520,313.100006 
	C564.058228,308.412659 569.508606,304.754883 574.451111,300.663391 
	C577.191589,303.097229 578.863281,304.581909 580.780396,306.027222 
	C583.705688,310.659363 586.385742,315.330902 589.127319,320.338531 
z"/>
<path fill="#1855EC" opacity="1.000000" stroke="none" 
	d="
M651.008972,433.021088 
	C655.053467,440.093933 659.098022,447.166809 662.813721,454.461884 
	C656.033142,451.309753 651.726318,455.604126 647.444641,459.162842 
	C641.734497,463.908813 636.371704,469.069916 630.756531,473.933533 
	C621.512085,481.940735 612.159180,489.822601 602.905945,497.819733 
	C599.456421,500.801025 596.734924,504.035645 600.222717,508.853271 
	C600.832153,509.695068 600.684448,511.084900 600.886475,512.221619 
	C595.683472,503.028015 590.480408,493.834412 585.422363,484.057434 
	C586.722534,482.062897 587.670349,480.388977 589.068420,479.285492 
	C595.512634,474.199097 602.329041,469.558594 608.544189,464.214142 
	C616.198547,457.632050 623.813171,450.902344 630.649353,443.501465 
	C636.343567,437.336853 643.456848,435.010712 651.008972,433.021088 
z"/>
<path fill="#1A45EE" opacity="1.000000" stroke="none" 
	d="
M600.945923,512.572876 
	C600.684448,511.084900 600.832153,509.695068 600.222717,508.853271 
	C596.734924,504.035645 599.456421,500.801025 602.905945,497.819733 
	C612.159180,489.822601 621.512085,481.940735 630.756531,473.933533 
	C636.371704,469.069916 641.734497,463.908813 647.444641,459.162842 
	C651.726318,455.604126 656.033142,451.309753 662.812744,454.830261 
	C663.140503,454.976440 663.051880,455.015839 663.220825,455.173340 
	C663.655701,455.588440 663.921631,455.846100 664.187622,456.103699 
	C667.060059,461.179840 669.932434,466.255981 672.874878,471.677673 
	C667.115112,475.364319 660.830444,478.117096 655.564026,482.187225 
	C648.051453,487.993317 641.427063,494.932709 634.160828,501.077667 
	C626.727783,507.363678 618.932251,513.219543 611.415649,519.409729 
	C610.275513,520.348694 609.908630,522.171143 608.963562,523.417786 
	C608.001099,524.687256 606.766357,525.750427 605.259277,526.910034 
	C606.253906,521.514038 603.180786,517.342957 600.945923,512.572876 
z"/>
<path fill="#089AD8" opacity="1.000000" stroke="none" 
	d="
M542.309204,407.269318 
	C550.437683,392.947510 562.655762,382.308807 573.216370,370.264954 
	C579.548401,363.043610 585.937927,355.859558 591.946228,348.373627 
	C594.621948,345.039886 597.562134,344.048248 601.862671,344.883759 
	C606.669373,352.658630 611.084656,360.451752 615.281250,368.430420 
	C610.774719,364.113068 607.666077,363.195312 605.000549,365.753784 
	C601.296143,369.309418 597.552429,372.834076 594.016235,376.553345 
	C583.296570,387.828064 572.525208,399.059753 562.070312,410.577271 
	C557.382141,415.741943 550.756409,420.531036 554.803040,429.254852 
	C550.677795,422.033325 546.552612,414.811798 542.309204,407.269318 
z"/>
<path fill="#1764E9" opacity="1.000000" stroke="none" 
	d="
M651.036865,432.652740 
	C643.456848,435.010712 636.343567,437.336853 630.649353,443.501465 
	C623.813171,450.902344 616.198547,457.632050 608.544189,464.214142 
	C602.329041,469.558594 595.512634,474.199097 589.068420,479.285492 
	C587.670349,480.388977 586.722534,482.062897 585.350159,483.719360 
	C583.073730,480.316589 581.014526,476.668518 578.895569,472.327637 
	C578.185608,470.784393 577.535400,469.933960 576.885193,469.083527 
	C576.885193,469.083527 576.993408,469.003357 576.987000,468.674469 
	C578.051086,466.778259 578.888733,464.960571 580.244263,463.699799 
	C582.531250,461.572784 585.322021,459.984039 587.587524,457.838074 
	C592.524536,453.161652 597.096252,448.092499 602.121338,443.517883 
	C611.184937,435.266815 620.979553,427.894196 628.524353,417.922546 
	C630.804626,414.908783 633.869324,409.311554 640.029846,411.907318 
	C643.708130,418.699677 647.386414,425.492035 651.036865,432.652740 
z"/>
<path fill="#1572E6" opacity="1.000000" stroke="none" 
	d="
M639.928528,411.577698 
	C633.869324,409.311554 630.804626,414.908783 628.524353,417.922546 
	C620.979553,427.894196 611.184937,435.266815 602.121338,443.517883 
	C597.096252,448.092499 592.524536,453.161652 587.587524,457.838074 
	C585.322021,459.984039 582.531250,461.572784 580.244263,463.699799 
	C578.888733,464.960571 578.051086,466.778259 576.937073,468.719513 
	C574.706238,465.261627 572.518982,461.429840 570.248657,457.145203 
	C570.112427,456.438721 569.961365,456.260956 569.712463,456.159058 
	C569.712463,456.159058 569.784851,456.161072 569.830200,455.772400 
	C571.070251,452.600800 571.615540,449.206329 573.565918,447.135010 
	C585.557617,434.399872 597.840820,421.938263 610.093445,409.450836 
	C612.386169,407.114166 615.207703,405.276306 617.379211,402.845581 
	C620.451477,399.406586 623.146301,395.630402 626.001221,391.999146 
	C626.000000,392.000000 625.997559,392.002502 626.299438,392.113434 
	C627.740417,392.812927 628.879517,393.401489 630.018616,393.990051 
	C633.288147,399.742737 636.557678,405.495422 639.928528,411.577698 
z"/>
<path fill="#137FE3" opacity="1.000000" stroke="none" 
	d="
M626.002441,391.998322 
	C623.146301,395.630402 620.451477,399.406586 617.379211,402.845581 
	C615.207703,405.276306 612.386169,407.114166 610.093445,409.450836 
	C597.840820,421.938263 585.557617,434.399872 573.565918,447.135010 
	C571.615540,449.206329 571.070251,452.600800 569.827820,455.808502 
	C566.134827,449.764160 562.489563,443.295013 559.077759,436.333130 
	C564.397217,431.284088 569.763245,426.999573 574.507263,422.111450 
	C582.793091,413.573883 590.645813,404.617767 598.775513,395.926361 
	C605.503174,388.733826 612.368408,381.669922 619.172607,374.549011 
	C622.730774,380.803101 626.289001,387.057159 629.932861,393.650635 
	C628.879517,393.401489 627.740417,392.812927 626.279297,392.078491 
	C625.957214,391.932648 626.002441,391.998322 626.002441,391.998322 
z"/>
<path fill="#0985D9" opacity="1.000000" stroke="none" 
	d="
M619.008911,374.266113 
	C612.368408,381.669922 605.503174,388.733826 598.775513,395.926361 
	C590.645813,404.617767 582.793091,413.573883 574.507263,422.111450 
	C569.763245,426.999573 564.397217,431.284088 558.964600,435.988464 
	C557.393127,434.068176 556.168396,431.999725 554.873352,429.593079 
	C550.756409,420.531036 557.382141,415.741943 562.070312,410.577271 
	C572.525208,399.059753 583.296570,387.828064 594.016235,376.553345 
	C597.552429,372.834076 601.296143,369.309418 605.000549,365.753784 
	C607.666077,363.195312 610.774719,364.113068 615.338623,368.767212 
	C616.691589,370.606689 617.768433,372.294922 619.008911,374.266113 
z"/>
<path fill="#4A1AC5" opacity="1.000000" stroke="none" 
	d="
M650.938538,610.083923 
	C660.938293,610.537842 663.619751,601.284729 669.055786,595.969849 
	C676.242065,588.943665 682.860413,581.243469 689.033875,573.297668 
	C697.022888,563.015076 704.332214,552.204407 711.990662,541.257446 
	C715.091248,546.304443 718.135376,551.715088 721.274902,557.463806 
	C719.159424,559.143677 716.410522,560.028809 714.823120,561.899536 
	C702.385132,576.558228 690.214111,591.443054 677.852966,606.167664 
	C674.978271,609.591980 671.825378,612.817078 668.526184,615.833923 
	C667.191589,617.054321 665.122253,617.471191 662.911804,618.468201 
	C662.783081,619.062134 662.512451,620.311157 662.064697,621.809082 
	C658.125671,615.284424 652.426636,612.442078 644.680420,613.039673 
	C640.081299,613.394592 635.429688,613.070190 630.346741,612.751709 
	C629.891785,612.452209 629.927002,612.018433 630.404053,612.024414 
	C636.351379,612.012634 641.826233,612.107422 647.288696,611.891357 
	C648.527222,611.842407 649.723083,610.714966 650.938538,610.083923 
z"/>
<path fill="#252AE9" opacity="1.000000" stroke="none" 
	d="
M629.927002,612.018433 
	C629.927002,612.018433 629.891785,612.452209 629.875488,612.669312 
	C584.555603,612.952759 539.252075,613.055847 493.948547,613.062073 
	C481.139587,613.063843 468.330566,612.782471 455.189087,612.360840 
	C473.600525,612.063171 492.344421,612.035706 512.024109,612.007812 
	C546.928650,611.989807 580.897461,611.972229 615.345703,611.970093 
	C620.525818,611.996460 625.226379,612.007446 629.927002,612.018433 
z"/>
<path fill="#1A45EE" opacity="1.000000" stroke="none" 
	d="
M599.542847,530.706970 
	C600.010681,530.936340 600.009094,531.141724 600.006165,531.654663 
	C583.652344,531.978577 567.299866,531.994873 550.480103,532.014771 
	C534.381104,532.014709 518.749146,531.971008 503.117706,532.044739 
	C500.310760,532.057922 497.506134,532.555359 494.269470,532.828491 
	C497.130432,532.097046 500.419586,530.746948 503.714752,530.731934 
	C535.500366,530.587341 567.287048,530.667297 599.542847,530.706970 
z"/>
<path fill="#137FE3" opacity="1.000000" stroke="none" 
	d="
M185.872070,785.383240 
	C205.739029,785.086243 225.771255,785.034607 245.803513,785.022339 
	C246.941742,785.021606 248.080170,785.342651 249.584335,785.691284 
	C239.215668,786.154663 228.481186,786.440674 216.902039,786.530762 
	C208.415100,786.442749 200.772827,786.550659 193.130569,786.658569 
	C191.977814,786.665649 190.825043,786.672668 189.083328,786.466614 
	C188.250137,786.167969 187.998932,786.116150 187.740753,786.098145 
	C187.172958,785.944458 186.605148,785.790771 185.872070,785.383240 
z"/>
<path fill="#02CAD7" opacity="1.000000" stroke="none" 
	d="
M469.387634,432.881470 
	C471.227295,427.460876 473.249542,421.807678 475.561035,416.275360 
	C475.925476,415.403015 477.598297,415.077332 479.027283,414.590942 
	C476.147400,420.684937 472.906464,426.686829 469.387634,432.881470 
z"/>
<path fill="#02CAD7" opacity="1.000000" stroke="none" 
	d="
M461.400940,447.116516 
	C463.569397,442.666077 466.010468,437.998505 468.777466,433.234741 
	C466.626770,437.725494 464.150146,442.312439 461.400940,447.116516 
z"/>
<path fill="#03E8DC" opacity="1.000000" stroke="none" 
	d="
M331.547089,508.070190 
	C330.859680,511.838165 332.455261,517.000916 326.432526,518.834473 
	C327.834839,515.389709 329.541351,511.817108 331.547089,508.070190 
z"/>
<path fill="#05B4D7" opacity="1.000000" stroke="none" 
	d="
M232.167923,687.013428 
	C234.853256,692.080139 230.174713,693.893494 227.211365,696.794189 
	C228.579514,693.675598 230.269638,690.463501 232.167923,687.013428 
z"/>
<path fill="#0985D9" opacity="1.000000" stroke="none" 
	d="
M193.581985,786.730469 
	C200.772827,786.550659 208.415100,786.442749 216.424438,786.462769 
	C209.205490,786.661316 201.619446,786.731812 193.581985,786.730469 
z"/>
<path fill="#05B4D7" opacity="1.000000" stroke="none" 
	d="
M365.449982,619.939392 
	C366.970428,616.567932 368.760223,612.991577 370.874939,609.331299 
	C369.372986,612.743103 367.546173,616.238770 365.449982,619.939392 
z"/>
<path fill="#6914A1" opacity="1.000000" stroke="none" 
	d="
M716.000000,713.000000 
	C716.273315,715.142273 716.546570,717.284485 716.763062,719.840759 
	C715.444763,718.133362 714.183350,716.011963 712.848083,713.545288 
	C712.774292,713.200012 712.914856,713.072815 713.352539,713.020508 
	C714.526855,712.978821 715.263428,712.989380 716.000000,713.000000 
z"/>
<path fill="#6914A1" opacity="1.000000" stroke="none" 
	d="
M716.703735,720.628540 
	C720.901855,720.859192 720.441162,724.358582 720.940857,727.660034 
	C719.554321,725.693909 718.167114,723.332642 716.703735,720.628540 
z"/>
<path fill="#089AD8" opacity="1.000000" stroke="none" 
	d="
M310.466003,719.996582 
	C311.764435,717.027100 313.312378,713.823547 315.208679,710.536682 
	C313.943176,713.556396 312.329346,716.659485 310.466003,719.996582 
z"/>
<path fill="#05BDD7" opacity="1.000000" stroke="none" 
	d="
M405.470154,546.977539 
	C406.616974,544.540100 408.070587,541.968994 409.822083,539.228333 
	C408.672272,541.653809 407.224609,544.248840 405.470154,546.977539 
z"/>
<path fill="#03E8DC" opacity="1.000000" stroke="none" 
	d="
M339.042725,494.890686 
	C337.997894,497.305298 336.757812,499.972412 335.198517,502.753052 
	C336.202026,500.292114 337.524719,497.717621 339.042725,494.890686 
z"/>
<path fill="#06A8D8" opacity="1.000000" stroke="none" 
	d="
M343.449097,659.963379 
	C344.401184,657.643616 345.617279,655.111206 347.179199,652.476562 
	C346.254425,654.833191 344.983765,657.291931 343.449097,659.963379 
z"/>
<path fill="#6914A1" opacity="1.000000" stroke="none" 
	d="
M828.989746,750.566406 
	C827.742432,749.123230 826.419250,747.354370 825.109131,745.209229 
	C826.386047,746.635559 827.649963,748.438171 828.989746,750.566406 
z"/>
<path fill="#03E8DC" opacity="1.000000" stroke="none" 
	d="
M356.595459,464.074768 
	C355.749634,466.124084 354.632507,468.372833 353.212891,470.791809 
	C354.048309,468.732727 355.186249,466.503448 356.595459,464.074768 
z"/>
<path fill="#03E8DC" opacity="1.000000" stroke="none" 
	d="
M352.665466,471.133118 
	C351.816254,473.187714 350.698486,475.445068 349.256226,477.817200 
	C350.086761,475.733307 351.241821,473.534637 352.665466,471.133118 
z"/>
<path fill="#05B4D7" opacity="1.000000" stroke="none" 
	d="
M220.514404,708.063110 
	C220.341721,709.398621 219.884033,710.916321 219.274017,712.744141 
	C219.093399,713.486450 219.065094,713.918701 218.698669,714.684326 
	C217.928314,715.033020 217.496094,715.048340 216.998749,715.002686 
	C216.933655,714.941650 216.803284,714.819885 216.803284,714.819885 
	C217.945312,712.628357 219.087357,710.436829 220.514404,708.063110 
z"/>
<path fill="#01D8D8" opacity="1.000000" stroke="none" 
	d="
M559.063599,269.234924 
	C558.334045,267.504150 557.799561,266.002655 557.309387,264.152344 
	C558.615601,265.887817 559.877502,267.972076 561.188782,270.396210 
	C560.578247,270.312103 559.918396,269.888153 559.063599,269.234924 
z"/>
<path fill="#03E8DC" opacity="1.000000" stroke="none" 
	d="
M344.633759,485.106567 
	C343.989258,486.742737 343.068573,488.565826 341.806519,490.497833 
	C342.429321,488.835663 343.393433,487.064575 344.633759,485.106567 
z"/>
<path fill="#03E8DC" opacity="1.000000" stroke="none" 
	d="
M360.650452,457.998291 
	C360.162994,459.174622 359.356842,460.447693 358.233093,461.825317 
	C358.720856,460.651581 359.526306,459.373291 360.650452,457.998291 
z"/>
<path fill="#03E8DC" opacity="1.000000" stroke="none" 
	d="
M348.651062,478.129272 
	C348.158051,479.534393 347.388214,481.113953 346.299011,482.809387 
	C346.777832,481.384735 347.576050,479.844208 348.651062,478.129272 
z"/>
<path fill="#252AE9" opacity="1.000000" stroke="none" 
	d="
M694.030640,509.305359 
	C693.823181,510.229156 693.467407,510.999573 693.111633,511.769989 
	C692.765930,511.367249 692.420227,510.964478 692.232056,510.103577 
	C692.621094,509.381927 692.852661,509.118378 693.084229,508.854797 
	C693.364868,508.914642 693.630859,509.013672 694.030640,509.305359 
z"/>
<path fill="#05B4D7" opacity="1.000000" stroke="none" 
	d="
M361.548950,627.048645 
	C361.821503,626.039734 362.343231,624.825867 363.206787,623.496948 
	C362.965118,624.535828 362.381592,625.689697 361.548950,627.048645 
z"/>
<path fill="#6914A1" opacity="1.000000" stroke="none" 
	d="
M676.807983,648.412109 
	C677.468933,649.176086 678.185120,650.269104 678.924927,651.705811 
	C678.253357,650.946655 677.558228,649.843933 676.807983,648.412109 
z"/>
<path fill="#6914A1" opacity="1.000000" stroke="none" 
	d="
M678.990601,652.359375 
	C679.554932,652.877258 680.166260,653.707764 680.775574,654.877808 
	C680.194885,654.368835 679.616272,653.520447 678.990601,652.359375 
z"/>
<path fill="#6914A1" opacity="1.000000" stroke="none" 
	d="
M680.782471,655.440674 
	C681.448608,656.212097 682.161377,657.315735 682.884094,658.769897 
	C682.205688,658.004517 681.517456,656.888672 680.782471,655.440674 
z"/>
<path fill="#06A8D8" opacity="1.000000" stroke="none" 
	d="
M339.589539,666.957886 
	C339.842621,665.951660 340.328247,664.724915 341.107147,663.404236 
	C340.874298,664.452637 340.348206,665.594971 339.589539,666.957886 
z"/>
<path fill="#05B4D7" opacity="1.000000" stroke="none" 
	d="
M226.651062,697.119141 
	C226.391373,698.118713 225.871613,699.317017 225.054688,700.685181 
	C225.302017,699.675903 225.846512,698.496948 226.651062,697.119141 
z"/>
<path fill="#03E8DC" opacity="1.000000" stroke="none" 
	d="
M334.618652,503.080933 
	C334.362213,504.109070 333.811371,505.283661 332.953918,506.615234 
	C333.206268,505.590637 333.765259,504.409027 334.618652,503.080933 
z"/>
<path fill="#05B4D7" opacity="1.000000" stroke="none" 
	d="
M217.002441,717.987427 
	C216.528030,717.972595 216.053604,717.957764 215.226135,717.901672 
	C215.343918,716.966614 215.814728,716.072815 216.544403,714.999390 
	C216.803284,714.819885 216.933655,714.941650 216.986420,715.368042 
	C217.026947,716.525452 217.014694,717.256409 217.002441,717.987427 
z"/>
<path fill="#137FE3" opacity="1.000000" stroke="none" 
	d="
M184.841156,782.936218 
	C185.005020,783.489197 185.005707,783.899048 185.003403,784.617188 
	C184.310974,784.232483 183.621536,783.539490 182.898361,782.532715 
	C183.469070,782.410400 184.073517,782.601807 184.841156,782.936218 
z"/>
<path fill="#05B4D7" opacity="1.000000" stroke="none" 
	d="
M224.480865,701.004211 
	C224.338730,701.780212 223.936188,702.720032 223.232483,703.790710 
	C223.361053,703.003723 223.790741,702.085815 224.480865,701.004211 
z"/>
<path fill="#06A8D8" opacity="1.000000" stroke="none" 
	d="
M347.763489,652.096436 
	C347.886353,651.331055 348.226685,650.355652 348.886963,649.267700 
	C348.798248,650.065613 348.389618,650.975952 347.763489,652.096436 
z"/>
<path fill="#1572E6" opacity="1.000000" stroke="none" 
	d="
M576.932129,469.413269 
	C577.535400,469.933960 578.185608,470.784393 578.851379,471.984283 
	C578.237671,471.470154 577.608337,470.606598 576.932129,469.413269 
z"/>
<path fill="#05B4D7" opacity="1.000000" stroke="none" 
	d="
M359.407104,630.935669 
	C359.683105,629.912964 360.243713,628.710327 361.066956,627.285522 
	C360.783661,628.294189 360.237701,629.524963 359.407104,630.935669 
z"/>
<path fill="#1A45EE" opacity="1.000000" stroke="none" 
	d="
M604.673950,527.024048 
	C604.436096,527.606812 603.950012,528.340332 603.238281,529.042236 
	C603.483582,528.398682 603.954651,527.786682 604.673950,527.024048 
z"/>
<path fill="#2E23E0" opacity="1.000000" stroke="none" 
	d="
M693.061401,508.515167 
	C692.852661,509.118378 692.621094,509.381927 692.194824,509.822754 
	C692.021423,508.857574 692.042786,507.715149 692.086670,506.144104 
	C692.419006,506.535522 692.728821,507.355530 693.061401,508.515167 
z"/>
<path fill="#01D8D8" opacity="1.000000" stroke="none" 
	d="
M562.923096,273.663849 
	C562.377441,273.156372 561.812195,272.340515 561.257141,271.198578 
	C561.812744,271.700134 562.358093,272.527802 562.923096,273.663849 
z"/>
<path fill="#05BDD7" opacity="1.000000" stroke="none" 
	d="
M404.047668,549.647156 
	C404.161316,549.070374 404.424194,548.213745 404.923889,547.229004 
	C404.839478,547.856323 404.518219,548.611816 404.047668,549.647156 
z"/>
<path fill="#089AD8" opacity="1.000000" stroke="none" 
	d="
M308.673798,723.126343 
	C308.869324,722.379761 309.288635,721.409485 310.001892,720.271729 
	C309.829742,721.036926 309.363647,721.969788 308.673798,723.126343 
z"/>
<path fill="#03E8DC" opacity="1.000000" stroke="none" 
	d="
M340.674805,492.083862 
	C340.586029,492.655701 340.237823,493.379547 339.607147,494.245117 
	C339.688232,493.669830 340.051819,492.952850 340.674805,492.083862 
z"/>
<path fill="#05B4D7" opacity="1.000000" stroke="none" 
	d="
M221.463898,705.940918 
	C221.552002,706.320557 221.387604,706.896973 221.070038,707.735840 
	C221.015045,707.378052 221.113220,706.757812 221.463898,705.940918 
z"/>
<path fill="#05B4D7" opacity="1.000000" stroke="none" 
	d="
M591.483032,324.648071 
	C591.148987,324.482941 590.734070,323.989594 590.195129,323.196594 
	C590.514832,323.371246 590.958496,323.845581 591.483032,324.648071 
z"/>
<path fill="#05B4D7" opacity="1.000000" stroke="none" 
	d="
M222.692993,704.123535 
	C222.682419,704.472778 222.415390,704.988831 221.988403,705.743042 
	C222.031143,705.417664 222.233826,704.853943 222.692993,704.123535 
z"/>
<path fill="#6914A1" opacity="1.000000" stroke="none" 
	d="
M676.042847,647.422974 
	C676.237549,647.431702 676.523071,647.646912 676.808533,648.036499 
	C676.515869,648.095520 676.290955,647.901733 676.042847,647.422974 
z"/>
<path fill="#02CAD7" opacity="1.000000" stroke="none" 
	d="
M479.701904,414.249695 
	C479.707458,413.997101 479.897247,413.642792 480.245819,413.165466 
	C480.231750,413.410950 480.058929,413.779449 479.701904,414.249695 
z"/>
<path fill="#05B4D7" opacity="1.000000" stroke="none" 
	d="
M214.622437,718.036499 
	C214.675461,718.423706 214.451492,718.966675 214.072800,719.760864 
	C214.060532,719.405457 214.202988,718.798889 214.622437,718.036499 
z"/>
<path fill="#089AD8" opacity="1.000000" stroke="none" 
	d="
M306.642853,726.112366 
	C306.614716,725.899475 306.787170,725.606750 307.134827,725.321655 
	C307.254669,725.630188 307.099152,725.864563 306.642853,726.112366 
z"/>
<path fill="#089AD8" opacity="1.000000" stroke="none" 
	d="
M315.743164,710.160461 
	C315.743439,709.816101 315.962128,709.293701 316.442322,708.625854 
	C316.456390,708.981079 316.208954,709.481750 315.743164,710.160461 
z"/>
<path fill="#089AD8" opacity="1.000000" stroke="none" 
	d="
M307.526672,725.106934 
	C307.521271,724.726624 307.774994,724.162842 308.261780,723.381348 
	C308.258514,723.750183 308.022186,724.336792 307.526672,725.106934 
z"/>
<path fill="#05B4D7" opacity="1.000000" stroke="none" 
	d="
M213.553101,719.969482 
	C213.617676,720.350281 213.424927,720.895569 213.039886,721.660034 
	C212.996979,721.297424 213.146378,720.715698 213.553101,719.969482 
z"/>
<path fill="#06A8D8" opacity="1.000000" stroke="none" 
	d="
M341.617767,663.122803 
	C341.625305,662.753418 341.889404,662.236572 342.414917,661.566284 
	C342.408997,661.933655 342.141632,662.454529 341.617767,663.122803 
z"/>
<path fill="#05B4D7" opacity="1.000000" stroke="none" 
	d="
M590.054077,322.698059 
	C589.814697,322.482056 589.558167,321.950165 589.248413,321.125122 
	C589.475769,321.348724 589.756409,321.865448 590.054077,322.698059 
z"/>
<path fill="#05BDD7" opacity="1.000000" stroke="none" 
	d="
M410.321777,538.914673 
	C410.311859,538.553833 410.555450,538.016174 410.978882,537.240906 
	C410.964233,537.581482 410.769775,538.159668 410.321777,538.914673 
z"/>
<path fill="#01D8D8" opacity="1.000000" stroke="none" 
	d="
M557.212769,263.614929 
	C556.905701,263.443268 556.584167,262.956177 556.156067,262.197205 
	C556.432434,262.383423 556.815369,262.841492 557.212769,263.614929 
z"/>
<path fill="#03E8DC" opacity="1.000000" stroke="none" 
	d="
M345.691437,483.168854 
	C345.710297,483.517151 345.482727,484.033142 345.091156,484.780884 
	C345.099762,484.453949 345.272400,483.895264 345.691437,483.168854 
z"/>
<path fill="#05B4D7" opacity="1.000000" stroke="none" 
	d="
M372.551910,607.120972 
	C372.534363,606.755127 372.757233,606.181030 373.167236,605.354980 
	C373.166992,605.706299 372.979675,606.309570 372.551910,607.120972 
z"/>
<path fill="#05B4D7" opacity="1.000000" stroke="none" 
	d="
M371.440857,609.003418 
	C371.432892,608.614136 371.704041,608.071960 372.192383,607.307556 
	C372.179688,607.673706 371.949799,608.262085 371.440857,609.003418 
z"/>
<path fill="#03E8DC" opacity="1.000000" stroke="none" 
	d="
M357.697449,462.096863 
	C357.720886,462.462341 357.481445,462.995819 357.080750,463.771881 
	C357.091217,463.431274 357.262878,462.848022 357.697449,462.096863 
z"/>
<path fill="#05B4D7" opacity="1.000000" stroke="none" 
	d="
M364.378906,621.961121 
	C364.348755,621.595215 364.570801,621.044128 364.959320,620.245728 
	C364.960876,620.590942 364.795990,621.183472 364.378906,621.961121 
z"/>
<path fill="#03E8DC" opacity="1.000000" stroke="none" 
	d="
M341.638306,490.838379 
	C341.716553,491.091309 341.469940,491.332611 341.080933,491.794037 
	C341.063477,491.618347 341.188477,491.222595 341.638306,490.838379 
z"/>
<path fill="#03E8DC" opacity="1.000000" stroke="none" 
	d="
M332.663147,506.874268 
	C332.729950,507.116333 332.486725,507.359039 332.081238,507.802368 
	C332.063660,507.626953 332.208374,507.250946 332.663147,506.874268 
z"/>
<path fill="#6914A1" opacity="1.000000" stroke="none" 
	d="
M720.951782,728.269104 
	C721.131348,728.220276 721.221741,728.449829 721.166382,728.840820 
	C721.129333,728.963867 720.971436,728.509033 720.951782,728.269104 
z"/>
<path fill="#0985D9" opacity="1.000000" stroke="none" 
	d="
M187.901520,786.221497 
	C187.998932,786.116150 188.250137,786.167969 188.671570,786.329407 
	C188.848770,786.405273 188.448364,786.468201 188.448364,786.468201 
	C188.448364,786.468201 188.062286,786.344849 187.901520,786.221497 
z"/>
<path fill="#1855EC" opacity="1.000000" stroke="none" 
	d="
M664.088501,455.814178 
	C663.921631,455.846100 663.655701,455.588440 663.201172,455.128967 
	C663.338196,455.126312 663.663818,455.325470 664.088501,455.814178 
z"/>
<path fill="#05B4D7" opacity="1.000000" stroke="none" 
	d="
M530.694946,386.491119 
	C530.900818,386.380035 531.024414,386.536285 531.005737,386.872070 
	C530.974487,386.975006 530.723511,386.681915 530.694946,386.491119 
z"/>
<path fill="#1A45EE" opacity="1.000000" stroke="none" 
	d="
M493.639496,532.805786 
	C493.751495,533.029968 493.545837,533.173462 493.135986,533.169067 
	C493.007507,533.139160 493.397583,532.843262 493.639496,532.805786 
z"/>
<path fill="#01D8D8" opacity="1.000000" stroke="none" 
	d="
M556.030151,261.706726 
	C555.848816,261.747528 555.623474,261.495758 555.212036,261.072754 
	C555.346069,261.072418 555.666138,261.243286 556.030151,261.706726 
z"/>
<path fill="#05B4D7" opacity="1.000000" stroke="none" 
	d="
M373.376709,605.149292 
	C373.306488,604.914001 373.549225,604.666138 373.954651,604.210571 
	C373.974792,604.380859 373.832214,604.758789 373.376709,605.149292 
z"/>
<path fill="#137FE3" opacity="1.000000" stroke="none" 
	d="
M569.777405,456.375488 
	C569.961365,456.260956 570.112427,456.438721 570.152344,456.812622 
	C570.139099,456.932892 569.842346,456.591949 569.777405,456.375488 
z"/>
<path fill="#05B4D7" opacity="1.000000" stroke="none" 
	d="
M363.377930,623.151794 
	C363.313599,622.908203 363.570251,622.668823 363.988281,622.217041 
	C363.999390,622.388367 363.849152,622.772217 363.377930,623.151794 
z"/>
<path fill="#089AD8" opacity="1.000000" stroke="none" 
	d="
M316.408539,708.165649 
	C316.339386,707.900513 316.605804,707.665222 317.029327,707.215027 
	C317.038971,707.398560 316.891510,707.797058 316.408539,708.165649 
z"/>
<path fill="#05B4D7" opacity="1.000000" stroke="none" 
	d="
M359.018433,631.736328 
	C358.799225,631.684509 358.832397,631.473633 359.084412,631.202148 
	C359.170074,631.117615 359.137573,631.553284 359.018433,631.736328 
z"/>
<path fill="#01D8D8" opacity="1.000000" stroke="none" 
	d="
M555.107056,260.674927 
	C554.908752,260.692688 554.728333,260.388611 554.319092,259.945129 
	C554.435181,259.988190 554.780090,260.170685 555.107056,260.674927 
z"/>
<path fill="#06A8D8" opacity="1.000000" stroke="none" 
	d="
M342.401764,661.165161 
	C342.330933,660.906555 342.594696,660.670898 343.006805,660.214233 
	C343.015533,660.391479 342.875977,660.789795 342.401764,661.165161 
z"/>
<path fill="#63129D" opacity="1.000000" stroke="none" 
	d="
M715.988281,712.622131 
	C715.263428,712.989380 714.526855,712.978821 713.422607,712.956604 
	C712.950745,711.025452 712.846558,709.105896 712.742371,707.186340 
	C713.183289,707.020508 713.624268,706.854675 714.065247,706.688843 
	C714.702332,708.540649 715.339417,710.392456 715.988281,712.622131 
z"/>
<path fill="#5817B4" opacity="1.000000" stroke="none" 
	d="
M685.678528,664.309021 
	C685.961792,663.840820 686.268066,663.385193 686.574280,662.929626 
	C686.860291,663.184875 687.146240,663.440186 687.432190,663.695435 
	C687.002686,663.841980 686.573120,663.988525 685.931946,664.252869 
	C685.720276,664.370667 685.701477,664.321655 685.678528,664.309021 
z"/>
<path fill="#1A2BF1" opacity="1.000000" stroke="none" 
	d="
M614.724670,540.181274 
	C617.937744,539.011169 620.997925,538.290039 623.780029,536.978943 
	C628.501892,534.753662 633.078674,532.211487 637.658386,529.696777 
	C640.909973,527.911255 644.066101,525.951843 647.631226,524.036255 
	C643.599060,535.862427 636.937805,546.455444 628.333618,555.550171 
	C619.362061,565.033142 609.550049,573.724854 600.040161,582.693298 
	C592.941895,589.387512 584.518616,595.096191 578.948242,602.866028 
	C573.983765,609.790710 568.274536,608.961182 561.936829,608.990356 
	C552.940857,609.031738 543.944519,609.006592 534.481323,609.007080 
	C533.270081,607.935486 532.525879,606.866638 531.695007,605.673523 
	C537.432434,597.028320 545.599304,591.459167 554.062317,585.760071 
	C569.568848,575.317749 585.822266,565.814636 599.245483,552.437744 
	C603.799866,547.899048 609.351074,544.360535 614.724670,540.181274 
z"/>
<path fill="#1A2BF1" opacity="1.000000" stroke="none" 
	d="
M614.866211,611.954651 
	C580.897461,611.972229 546.928650,611.989807 512.494629,612.004944 
	C512.026611,611.553650 512.023987,611.104797 512.025330,610.319092 
	C538.725159,609.983215 565.420898,609.984314 592.592529,609.966125 
	C600.053528,609.980408 607.038818,610.014099 614.486633,610.367065 
	C614.921570,611.109131 614.893860,611.531860 614.866211,611.954651 
z"/>
<path fill="#06A8D8" opacity="1.000000" stroke="none" 
	d="
M217.284760,717.916748 
	C217.014694,717.256409 217.026947,716.525452 217.051529,715.429077 
	C217.496094,715.048340 217.928314,715.033020 218.685013,715.009277 
	C218.528671,715.949341 218.047867,716.897705 217.284760,717.916748 
z"/>
<path fill="#01E0D9" opacity="1.000000" stroke="none" 
	d="
M519.505981,239.505554 
	C519.487183,239.511658 519.524841,239.499466 519.505981,239.505554 
z"/>
<path fill="#1A2BF1" opacity="1.000000" stroke="none" 
	d="
M649.274902,522.883911 
	C649.485413,522.408020 649.968384,521.818481 650.723267,521.114807 
	C650.512512,521.590576 650.029907,522.180481 649.274902,522.883911 
z"/>
<path fill="#2E23E0" opacity="1.000000" stroke="none" 
	d="
M615.345703,611.970093 
	C614.893860,611.531860 614.921570,611.109131 614.952393,610.369141 
	C626.642334,610.058044 638.329102,610.064209 650.477173,610.077148 
	C649.723083,610.714966 648.527222,611.842407 647.288696,611.891357 
	C641.826233,612.107422 636.351379,612.012634 630.404053,612.024414 
	C625.226379,612.007446 620.525818,611.996460 615.345703,611.970093 
z"/>
<path fill="#1572E6" opacity="1.000000" stroke="none" 
	d="
M626.001221,391.999146 
	C626.002441,391.998322 625.957214,391.932648 625.977417,391.967590 
	C625.997559,392.002502 626.000000,392.000000 626.001221,391.999146 
z"/>
</svg>